<svg xmlns="http://www.w3.org/2000/svg" viewBox="0 0 382.09 100"><defs><style>.cls-1{fill:#009ede;}.cls-2{fill:#007e53;}.cls-3{fill:#231815;}.cls-4{fill:none;stroke:#231815;stroke-miterlimit:10;stroke-width:1.45px;}</style></defs><title>logo-miyazaki</title><g id="レイヤー_2" data-name="レイヤー 2"><g id="レイヤー_1-2" data-name="レイヤー 1"><path class="cls-1" d="M49.73,0A50,50,0,0,0,0,44.81c6.32-13.88,26.24-24,49.87-24C73,20.8,92.65,30.54,99.36,44A50,50,0,0,0,49.73,0m.06,18.59a7.54,7.54,0,1,1,7.55-7.53,7.54,7.54,0,0,1-7.55,7.53"/><path class="cls-2" d="M82.11,72.36c6.25-4.39,10-10.06,10-16.26C92.12,42.23,73.2,31,49.85,31S7.56,42.23,7.56,56.1c0,6,3.57,11.56,9.51,15.88C8,67.55,1.73,61.3,0,54.24a50,50,0,0,0,99.46,1.5C97.25,62.38,91,68.21,82.11,72.36M49.79,35.23A11.32,11.32,0,1,1,38.48,46.54,11.32,11.32,0,0,1,49.79,35.23m0,61.15A15.59,15.59,0,1,1,65.36,80.79,15.58,15.58,0,0,1,49.79,96.38"/><path class="cls-3" d="M298.39,93.34q0,.27-.15.27c-.43,0-1,0-1.58,0s-1.08-.07-1.46-.07-.86,0-1.45.07-1.09,0-1.5,0c-.13,0-.19-.09-.19-.27s0-.24.17-.26a3.7,3.7,0,0,0,1.5-.41,1.16,1.16,0,0,0,.44-1v-.15l-.42-9.29-4.62,11.58c0,.11-.13.15-.27.15s-.23,0-.26-.15l-4.41-11.13-.68,8.84c0,.11,0,.21,0,.28a1,1,0,0,0,.43.92,4.37,4.37,0,0,0,1.65.41c.07,0,.12.09.12.26s-.06.27-.18.27c-.33,0-.8,0-1.43,0s-.91-.07-1.2-.07-.75,0-1.32.07-1,0-1.23,0c-.11,0-.13-.09-.13-.27s.05-.24.16-.26a4.6,4.6,0,0,0,1.72-.45,1.39,1.39,0,0,0,.52-1.16l1-9c0-.12,0-.23,0-.33a1,1,0,0,0-.43-.89,4.14,4.14,0,0,0-1.63-.42c-.1,0-.14-.09-.14-.27a.29.29,0,0,1,.05-.18c.05-.07.09-.1.14-.1.25,0,.61,0,1,.06a5.69,5.69,0,0,0,.78.06,7.9,7.9,0,0,0,1-.06c.46,0,.81-.06,1-.06l4.1,10.68,4.26-10.68c.26,0,.62,0,1,.06a6.5,6.5,0,0,0,.87.06,7,7,0,0,0,1-.06c.39,0,.74-.06,1-.06.13,0,.18.1.18.28s0,.27-.15.27a3.66,3.66,0,0,0-1.55.42,1.14,1.14,0,0,0-.39,1v.18l.42,9a1.8,1.8,0,0,0,.22.92,1.11,1.11,0,0,0,.6.44,5.56,5.56,0,0,0,1.25.25c.1,0,.15.1.15.26"/><path class="cls-3" d="M305.78,93.34c0,.18,0,.27-.16.27-.43,0-.95,0-1.53,0s-1-.07-1.42-.07-.89,0-1.46.07-1.11,0-1.54,0q-.15,0-.15-.27c0-.16.05-.24.15-.26a3.65,3.65,0,0,0,1.58-.43,1.38,1.38,0,0,0,.42-1.18v-9a2,2,0,0,0-.16-1,1.28,1.28,0,0,0-.6-.42,5.14,5.14,0,0,0-1.24-.26q-.15,0-.15-.27c0-.18.05-.28.15-.28.43,0,.95,0,1.54.06s1.05.06,1.46.06.85,0,1.42-.06,1.1-.06,1.53-.06c.11,0,.16.1.16.28s0,.27-.16.27a5.25,5.25,0,0,0-1.24.26,1.35,1.35,0,0,0-.6.41,2.33,2.33,0,0,0-.15,1v9a2.19,2.19,0,0,0,.15.92,1.24,1.24,0,0,0,.6.44,5.22,5.22,0,0,0,1.24.25c.1,0,.16.1.16.26"/><path class="cls-3" d="M326.58,82.46l.9,5H324ZM332.21,93a2.55,2.55,0,0,1-1.44-.58,2.46,2.46,0,0,1-.68-1.4L327.9,79.78c0-.09-.1-.14-.27-.14a.33.33,0,0,0-.3.15L321.05,91a5.16,5.16,0,0,1-1.21,1.52,2.93,2.93,0,0,1-1.33.46c-.16,0-.23.11-.27.29s0,.23.1.23c.31,0,.66,0,1.12,0s.78,0,1.06,0,.75,0,1.15,0,.89,0,1.28,0c.09,0,.18-.09.21-.26s0-.27-.09-.27c-1,0-1.5-.37-1.4-1a3.36,3.36,0,0,1,.35-.93l1.6-3h4l.55,3.28a2.86,2.86,0,0,1,.06.81.73.73,0,0,1-.46.59,3.33,3.33,0,0,1-1.25.24c-.09,0-.15.08-.17.27s0,.26.11.26c.44,0,1,0,1.56,0s1.07,0,1.48,0,.75,0,1.21,0,1.05,0,1.49,0c.1,0,.17-.09.19-.26s0-.26-.14-.26"/><path class="cls-3" d="M353.69,82.46l.89,5h-3.51ZM359.33,93a2.54,2.54,0,0,1-1.43-.58,2.2,2.2,0,0,1-.7-1.4L355,79.78c0-.09-.11-.14-.26-.14a.32.32,0,0,0-.3.15L348.16,91a5.17,5.17,0,0,1-1.2,1.52,2.84,2.84,0,0,1-1.32.46c-.19,0-.25.11-.3.29s0,.23.1.23c.33,0,.69,0,1.15,0s.76,0,1,0,.75,0,1.17,0,.88,0,1.28,0c.11,0,.17-.09.2-.26s0-.27-.07-.27c-1,0-1.51-.37-1.43-1a3,3,0,0,1,.38-.93l1.56-3h4l.59,3.28a2.86,2.86,0,0,1,.06.81.78.78,0,0,1-.48.59,3.57,3.57,0,0,1-1.25.24c-.08,0-.13.08-.15.27s0,.26.11.26c.4,0,.93,0,1.53,0s1.11,0,1.48,0,.74,0,1.21,0,1.07,0,1.49,0c.1,0,.17-.09.19-.26s0-.26-.13-.26"/><path class="cls-3" d="M345.2,90.36a32.71,32.71,0,0,0-.65,3.33,42.56,42.56,0,0,0-5.57-.2,45.66,45.66,0,0,0-5.67.19c-.16,0-.25-.11-.25-.34l0-.15L342.35,81H338a4.1,4.1,0,0,0-4.09,2.62q-.07.18-.21.18c-.22,0-.33-.06-.33-.19l0-.15a29.74,29.74,0,0,0,1.07-3.27,35.37,35.37,0,0,0,5.09.19,40.26,40.26,0,0,0,5.29-.18c.16,0,.23.12.23.36a.56.56,0,0,1,0,.15l-9.24,12.18h5.09a3.94,3.94,0,0,0,2.37-.71,3.63,3.63,0,0,0,1.39-1.92.22.22,0,0,1,.24-.16c.2,0,.3.09.28.26"/><path class="cls-3" d="M375.1,93.34c0,.18-.06.27-.15.27-.42,0-.95,0-1.55,0s-1.06-.07-1.43-.07-.9,0-1.59.07-1.26,0-1.66,0c-.11,0-.16-.09-.16-.27s.05-.24.14-.26c.84-.09,1.28-.31,1.28-.63s-.16-.4-.43-.68l-3.81-3.88a1.31,1.31,0,0,0-1.18-.49v4.07a1.85,1.85,0,0,0,.18.92,1.27,1.27,0,0,0,.61.44,5.23,5.23,0,0,0,1.23.25c.1,0,.15.1.15.26s0,.27-.15.27c-.43,0-.94,0-1.53,0s-1.06-.07-1.46-.07-.84,0-1.41.07-1.13,0-1.54,0c-.11,0-.17-.09-.17-.27s.06-.24.17-.26a3.7,3.7,0,0,0,1.58-.43,1.38,1.38,0,0,0,.43-1.18v-9a1.83,1.83,0,0,0-.17-1,1.17,1.17,0,0,0-.62-.42,4.84,4.84,0,0,0-1.22-.26c-.11,0-.17-.09-.17-.27s.06-.28.17-.28c.41,0,.95,0,1.54.06s1.05.06,1.41.06.87,0,1.46-.06,1.1-.06,1.53-.06c.12,0,.15.1.15.28s0,.27-.15.27a4.83,4.83,0,0,0-1.23.26,1.32,1.32,0,0,0-.61.42,1.92,1.92,0,0,0-.18,1v4.34a2.24,2.24,0,0,0,.64-.09,2.89,2.89,0,0,0,.54-.43L370,82.12c.34-.32.54-.57.54-.7a.43.43,0,0,0-.26-.38,3.32,3.32,0,0,0-1-.23c-.11,0-.17-.09-.17-.27s.06-.28.19-.28c.3,0,.69,0,1.19.06s1,.06,1.31.06a9.38,9.38,0,0,0,1.14-.06,8.44,8.44,0,0,1,.93-.06c.08,0,.12.1.12.28s0,.27-.15.27a4.6,4.6,0,0,0-1.47.37,5.58,5.58,0,0,0-1.25,1L366.7,86.3l5.46,5.53a4,4,0,0,0,1.11.86,5.32,5.32,0,0,0,1.65.39c.12,0,.18.1.18.26"/><path class="cls-3" d="M382.09,93.34c0,.18,0,.27-.14.27-.44,0-.93,0-1.52,0s-1.05-.07-1.45-.07-.86,0-1.42.07-1.13,0-1.56,0c-.1,0-.14-.09-.14-.27s0-.24.14-.26a3.81,3.81,0,0,0,1.6-.43,1.38,1.38,0,0,0,.41-1.18v-9a2.28,2.28,0,0,0-.15-1,1.34,1.34,0,0,0-.6-.42,5.34,5.34,0,0,0-1.26-.26c-.1,0-.14-.09-.14-.27s0-.28.14-.28c.43,0,1,0,1.56.06s1.05.06,1.42.06.88,0,1.45-.06,1.08-.06,1.52-.06c.11,0,.14.1.14.28s0,.27-.14.27a4.94,4.94,0,0,0-1.22.26,1.26,1.26,0,0,0-.59.41,2,2,0,0,0-.17,1v9a1.87,1.87,0,0,0,.17.92,1.16,1.16,0,0,0,.59.44,4.71,4.71,0,0,0,1.21.25c.12,0,.15.1.15.26"/><path class="cls-3" d="M260.35,91.62a4.31,4.31,0,0,1-3.68,1.82A4.54,4.54,0,0,1,253,91.62a8.72,8.72,0,0,1-1.24-4.75A9.1,9.1,0,0,1,253,82a4.56,4.56,0,0,1,3.64-1.88A4.3,4.3,0,0,1,260.34,82a7.64,7.64,0,0,1,1.39,4.84,7.33,7.33,0,0,1-1.38,4.75m1.5-10a6.82,6.82,0,0,0-5.18-2.07,6.58,6.58,0,0,0-5.06,2.07,7.09,7.09,0,0,0-2.11,5.29,7,7,0,0,0,2.09,5.2,6.69,6.69,0,0,0,5.08,2,6.92,6.92,0,0,0,5.19-2,7.18,7.18,0,0,0,2-5.2,7.39,7.39,0,0,0-2-5.29"/><path class="cls-3" d="M274.19,82.93c0,.12-.11.18-.31.18s-.17,0-.19-.13a2.92,2.92,0,0,0-1.18-1.69,3.49,3.49,0,0,0-2-.57h-1.83c-.71,0-1,.39-1,1.14v4.28h2.17c.68,0,1.07-.15,1.27-.44a3.67,3.67,0,0,0,.45-1.55c0-.1.09-.16.27-.16s.28.06.28.16c0,.3,0,.71-.05,1.2s-.07.83-.07,1.14,0,.69.07,1.14.05.93.05,1.24c0,.1-.09.16-.28.16s-.27-.06-.27-.16a3.63,3.63,0,0,0-.48-1.64,1.39,1.39,0,0,0-1.24-.48h-2.17v4.44a1.93,1.93,0,0,0,.15.93,1,1,0,0,0,.51.43,6.38,6.38,0,0,0,1.3.26c.11,0,.17.1.17.26s-.06.27-.17.27c-.45,0-1,0-1.55,0s-1-.07-1.42-.07-.93,0-1.49.07-1,0-1.46,0c-.11,0-.17-.09-.17-.27s.06-.25.17-.26a4.28,4.28,0,0,0,1.19-.26,1.21,1.21,0,0,0,.55-.43,1.83,1.83,0,0,0,.17-.93v-9a2,2,0,0,0-.16-.94,1.3,1.3,0,0,0-.55-.44,4,4,0,0,0-1.2-.25c-.11,0-.17-.11-.17-.29s.06-.26.17-.26c1.52.08,3.27.11,4.89.11s3.22,0,4.91-.11a27.22,27.22,0,0,0,.67,2.94"/><path class="cls-3" d="M134.48,80.67c0,.18,0,.27-.15.27a4.25,4.25,0,0,0-1.62.44,1.4,1.4,0,0,0-.41,1.2v6a5.92,5.92,0,0,1-1.26,4,4.3,4.3,0,0,1-3.5,1.45,5.56,5.56,0,0,1-4-1.38,5.06,5.06,0,0,1-1.43-3.79V82.58a2.35,2.35,0,0,0-.17-1,1.07,1.07,0,0,0-.59-.42,5.33,5.33,0,0,0-1.22-.26c-.1,0-.16-.09-.16-.27s.06-.27.16-.27c.42,0,.93,0,1.51.06s1.06.05,1.45.05.86,0,1.43-.05,1.12-.06,1.56-.06c.1,0,.15.08.15.27s0,.27-.15.27a5.66,5.66,0,0,0-1.25.26,1,1,0,0,0-.6.42,2,2,0,0,0-.17,1v6.08a5.36,5.36,0,0,0,.9,3.47,3.51,3.51,0,0,0,2.9,1.12c2.54,0,3.82-1.6,3.82-4.81V82.58a1.37,1.37,0,0,0-.44-1.21,3.92,3.92,0,0,0-1.6-.43c-.11,0-.15-.09-.15-.27s0-.27.15-.27a10.92,10.92,0,0,1,1.16.06c.49,0,.9.05,1.22.05s.68,0,1.13-.05a11.41,11.41,0,0,1,1.21-.06c.11,0,.15.08.15.27"/><path class="cls-3" d="M151.21,80.56c0,.16-.06.24-.18.26a4,4,0,0,0-1.64.44,1.39,1.39,0,0,0-.45,1.19l-.22,11.27c0,.12-.07.19-.24.19a.48.48,0,0,1-.31-.15l-9.9-11.16-.14,8.87a.78.78,0,0,0,0,.14,1.19,1.19,0,0,0,.47,1,4.13,4.13,0,0,0,1.66.44c.1,0,.15.1.15.26s0,.27-.15.27c-.33,0-.78,0-1.37,0s-1-.07-1.28-.07-.74,0-1.29.07-.92,0-1.23,0c-.11,0-.14-.09-.14-.27s.06-.24.16-.26a3.81,3.81,0,0,0,1.63-.44,1.4,1.4,0,0,0,.48-1.17l.35-9v-.09a1.23,1.23,0,0,0-.46-1.09,4.19,4.19,0,0,0-1.67-.46c-.1,0-.13-.09-.13-.27s0-.28.15-.28.53,0,.93.06a5.73,5.73,0,0,0,.8.06,5.45,5.45,0,0,0,.83-.06c.31,0,.59-.06.83-.06l9.26,10.35V82.45a1.34,1.34,0,0,0-.48-1.16,4.18,4.18,0,0,0-1.72-.47c-.11,0-.17-.1-.17-.26s.06-.27.17-.27c.34,0,.81,0,1.39,0s.95,0,1.24,0,.75,0,1.31,0,.92,0,1.2,0c.12,0,.18.08.18.27"/><path class="cls-3" d="M158.2,93.34q0,.27-.15.27c-.44,0-.94,0-1.54,0s-1-.07-1.44-.07-.87,0-1.43.07-1.1,0-1.54,0c-.11,0-.16-.09-.16-.27s.05-.24.16-.26a3.6,3.6,0,0,0,1.57-.43,1.38,1.38,0,0,0,.44-1.18v-9a1.9,1.9,0,0,0-.19-1,1.12,1.12,0,0,0-.58-.42,5.25,5.25,0,0,0-1.24-.26c-.11,0-.16-.09-.16-.27s.05-.28.16-.28c.44,0,.94,0,1.54.06s1.06.06,1.43.06.88,0,1.44-.06,1.1-.06,1.54-.06c.1,0,.15.1.15.28s0,.27-.15.27a5,5,0,0,0-1.24.26,1.21,1.21,0,0,0-.59.41,2.14,2.14,0,0,0-.16,1v9a2,2,0,0,0,.16.92,1.12,1.12,0,0,0,.59.44,4.81,4.81,0,0,0,1.23.25c.11,0,.16.1.16.26"/><path class="cls-3" d="M173.72,80.5c0,.21-.06.31-.19.31a2.51,2.51,0,0,0-1.32.42,3.91,3.91,0,0,0-1,1.52l-4.82,11a.27.27,0,0,1-.28.15.26.26,0,0,1-.26-.16l-4.29-11a5.41,5.41,0,0,0-.58-1.24,1.61,1.61,0,0,0-.63-.45,5.83,5.83,0,0,0-1.29-.25.13.13,0,0,1-.12-.09.28.28,0,0,1-.09-.18c0-.18.06-.28.16-.28.42,0,.89,0,1.42.06a13.09,13.09,0,0,0,1.33.06c.39,0,.86,0,1.44-.06s1.13-.06,1.55-.06c.1,0,.16.1.16.28s0,.27-.1.27a3.64,3.64,0,0,0-1.22.22.57.57,0,0,0-.37.56,2.75,2.75,0,0,0,.23.85l3.34,8.71,3.45-8.48a3.62,3.62,0,0,0,.18-.82c0-.62-.57-1-1.7-1-.08,0-.11-.09-.11-.27s.06-.28.17-.28c.29,0,.69,0,1.2.06s1,.06,1.33.06a10.46,10.46,0,0,0,1.11-.06c.45,0,.85-.06,1.16-.06.07,0,.09.08.09.24"/><path class="cls-3" d="M186.47,90.44c-.53,1.13-.94,2.16-1.3,3.17-2.38-.08-4.14-.12-5.15-.12s-2.75,0-5.17.12c-.12,0-.16-.09-.16-.27s0-.24.16-.26a5.33,5.33,0,0,0,1.24-.25,1.38,1.38,0,0,0,.61-.44,1.81,1.81,0,0,0,.16-.92v-9a1.9,1.9,0,0,0-.16-1,1.23,1.23,0,0,0-.6-.42,5.13,5.13,0,0,0-1.25-.26c-.12,0-.16-.09-.16-.27s0-.28.16-.28c1.62.08,3.25.12,5,.12s3.37,0,5-.12a17.43,17.43,0,0,0,.64,2.95c0,.13-.13.18-.35.18s-.17,0-.19-.13a3,3,0,0,0-3-2.26h-1.94c-.76,0-1.11.37-1.11,1.15v4.27h2.42a1.57,1.57,0,0,0,1.3-.45,3,3,0,0,0,.5-1.56q0-.15.24-.15c.17,0,.26,0,.26.15,0,.31,0,.73-.05,1.22a10.86,10.86,0,0,0,0,2.28c0,.51.05.91.05,1.23,0,.09-.09.15-.26.15s-.24-.06-.24-.15a3.43,3.43,0,0,0-.52-1.65,1.62,1.62,0,0,0-1.28-.45h-2.42v4.71a1,1,0,0,0,1.11,1.14H182a4,4,0,0,0,2.24-.76,4.33,4.33,0,0,0,1.67-1.84.18.18,0,0,1,.17-.09.52.52,0,0,1,.25.07.2.2,0,0,1,.11.17"/><path class="cls-3" d="M194.15,86.05a3,3,0,0,1-2.24.74,13.2,13.2,0,0,1-1.42-.08V82.45a2.33,2.33,0,0,1,.15-1,.88.88,0,0,1,.54-.39,4.45,4.45,0,0,1,1.24-.14c1.64,0,2.46.94,2.46,2.8a3.12,3.12,0,0,1-.73,2.33m5.49,7a4.47,4.47,0,0,1-1.56-.42,2.5,2.5,0,0,1-1-.92L194,87a5.32,5.32,0,0,0,2.2-1.37,2.86,2.86,0,0,0,.81-1.94,3,3,0,0,0-1.17-2.54,5.18,5.18,0,0,0-3.3-.92c-.44,0-1,0-1.55.06s-1.05.06-1.44.06-.89,0-1.44-.06-1.13-.06-1.52-.06c-.09,0-.14.1-.14.28s.05.27.14.27a5.05,5.05,0,0,1,1.22.26,1.22,1.22,0,0,1,.61.42,2.25,2.25,0,0,1,.13,1v9a1.84,1.84,0,0,1-.15.92,1.14,1.14,0,0,1-.61.44,5.15,5.15,0,0,1-1.2.25c-.09,0-.14.1-.14.26s.05.27.14.27c.39,0,.93,0,1.52,0s1.07-.07,1.44-.07.86,0,1.44.07,1.11,0,1.55,0c.09,0,.15-.09.15-.27s-.06-.24-.15-.26a5.66,5.66,0,0,1-1.26-.25,1.18,1.18,0,0,1-.58-.44,1.65,1.65,0,0,1-.18-.92V87.34a3.12,3.12,0,0,1,1.55.27,5.47,5.47,0,0,1,1,1.26l2.92,4.74c.18,0,.48,0,.87,0a7.77,7.77,0,0,1,.87-.07c.14,0,.41,0,.79.06.53,0,.92.06,1.16.06s.17-.09.17-.27-.06-.24-.15-.26"/><path class="cls-3" d="M209.39,89.75a3.89,3.89,0,0,1-1.25,3,4.79,4.79,0,0,1-3.38,1.12,10.26,10.26,0,0,1-2.24-.3,8.94,8.94,0,0,0-2-.28c-.05-1.1-.14-2.19-.27-3.26,0-.11.11-.15.33-.15s.24,0,.27.15a5.3,5.3,0,0,0,1.47,2.5,3.71,3.71,0,0,0,2.48.73,2.7,2.7,0,0,0,2-.67,2.38,2.38,0,0,0,.7-1.88,2.17,2.17,0,0,0-.59-1.45,11.49,11.49,0,0,0-2.61-1.71,10.81,10.81,0,0,1-3-2,2.81,2.81,0,0,1-.71-1.85,3.35,3.35,0,0,1,1.27-2.65A4.89,4.89,0,0,1,205.12,80a10,10,0,0,1,1.68.18,9.08,9.08,0,0,0,1.57.17c.1,1.13.21,2.13.34,3,0,.11-.1.15-.26.15s-.33,0-.35-.15A4,4,0,0,0,207,81.23a2.8,2.8,0,0,0-2-.64,2.74,2.74,0,0,0-1.89.64,2.21,2.21,0,0,0-.68,1.7,1.88,1.88,0,0,0,.58,1.31,11.46,11.46,0,0,0,2.54,1.66,12.4,12.4,0,0,1,3.06,2,2.7,2.7,0,0,1,.7,1.81"/><path class="cls-3" d="M215.85,93.34c0,.18,0,.27-.13.27-.43,0-.93,0-1.53,0s-1.07-.07-1.45-.07-.85,0-1.4.07-1.15,0-1.58,0c-.11,0-.15-.09-.15-.27s0-.24.15-.26a3.71,3.71,0,0,0,1.59-.43,1.33,1.33,0,0,0,.43-1.18v-9a1.94,1.94,0,0,0-.17-1,1.13,1.13,0,0,0-.61-.42,5.49,5.49,0,0,0-1.24-.26c-.11,0-.15-.09-.15-.27s0-.28.15-.28c.43,0,.93,0,1.58.06s1,.06,1.4.06.85,0,1.45-.06,1.1-.06,1.53-.06c.1,0,.13.1.13.28s0,.27-.13.27a5.39,5.39,0,0,0-1.23.26,1.31,1.31,0,0,0-.62.41,2,2,0,0,0-.16,1v9a1.89,1.89,0,0,0,.16.92,1.23,1.23,0,0,0,.61.44,5.5,5.5,0,0,0,1.21.25c.11,0,.16.1.16.26"/><path class="cls-3" d="M229.45,83.43c0,.11-.13.18-.38.18a.2.2,0,0,1-.19-.13,3.79,3.79,0,0,0-1.13-1.93,4.07,4.07,0,0,0-2.34-.55h-.84a1.05,1.05,0,0,0-.63.15.69.69,0,0,0-.19.57v9.75a1.64,1.64,0,0,0,.19.92,1.18,1.18,0,0,0,.58.44,4.64,4.64,0,0,0,1.16.25c.11,0,.16.1.16.26s-.05.27-.16.27c-.42,0-.9,0-1.46,0s-1.08-.07-1.5-.07-.83,0-1.38.07-1.13,0-1.58,0c-.11,0-.16-.09-.16-.27s.05-.24.16-.26a3.65,3.65,0,0,0,1.63-.43,1.41,1.41,0,0,0,.41-1.18V81.72a.69.69,0,0,0-.19-.57A1,1,0,0,0,221,81h-.79a4.38,4.38,0,0,0-2.41.68,3.1,3.1,0,0,0-1.5,1.78c0,.1-.09.15-.19.15s-.33-.08-.33-.22c.33-1,.69-2,1-3.28a39.66,39.66,0,0,0,6,.27,40.13,40.13,0,0,0,6.11-.27,32,32,0,0,0,.62,3.32"/><path class="cls-3" d="M244.15,80.54a.27.27,0,0,1-.08.18.21.21,0,0,1-.16.09,3.23,3.23,0,0,0-1.34.39,4.22,4.22,0,0,0-1.22,1.25l-3.63,5.16v3.86a2.24,2.24,0,0,0,.13.91.87.87,0,0,0,.53.44,4.78,4.78,0,0,0,1.28.26c.12,0,.18.1.18.26s-.06.27-.18.27c-.45,0-1,0-1.53,0s-.95-.07-1.27-.07-.91,0-1.5.07-1.12,0-1.5,0c-.09,0-.14-.09-.14-.27s.05-.24.14-.26a3.81,3.81,0,0,0,1.53-.43,1.29,1.29,0,0,0,.46-1.18V87.64l-3.35-5.19a4.62,4.62,0,0,0-1.22-1.25,3.1,3.1,0,0,0-1.35-.39c-.11,0-.15-.09-.15-.27s0-.28.15-.28c.33,0,.72,0,1.2.06s1,.06,1.37.06.83,0,1.39-.06,1.17-.06,1.66-.06c.1,0,.16.1.16.28s-.06.27-.16.27c-.9.11-1.28.34-1.28.64a2.1,2.1,0,0,0,.36,1l2.8,4.32,2.9-4.32a1.79,1.79,0,0,0,.27-.81.6.6,0,0,0-.29-.53,2.44,2.44,0,0,0-1.1-.3q-.12,0-.12-.27c0-.18,0-.28.16-.28.39,0,.85,0,1.28.06s1,.06,1.4.06a8.62,8.62,0,0,0,1.11-.06,8.39,8.39,0,0,1,.93-.06c.12,0,.18.1.18.28"/><path class="cls-3" d="M321.31,80.86a.3.3,0,0,1-.06.19.16.16,0,0,1-.14.08,3.82,3.82,0,0,0-1.46.38,4,4,0,0,0-1.13,1.25l-3.6,5.16v3.86a2.73,2.73,0,0,0,.11.91.82.82,0,0,0,.5.44,3.87,3.87,0,0,0,1.21.26c.11,0,.16.1.16.26s0,.26-.16.26c-.44,0-.92,0-1.44,0s-1-.06-1.37-.06-.87,0-1.43.06-1.11,0-1.53,0c-.12,0-.17-.07-.17-.26s.05-.24.17-.26a3.31,3.31,0,0,0,1.56-.42,1.41,1.41,0,0,0,.44-1.19V88l-3.34-5.21a4,4,0,0,0-1.2-1.25,4.16,4.16,0,0,0-1.39-.37c-.11,0-.16-.09-.16-.27s.05-.28.16-.28c.3,0,.72,0,1.24.07s1,0,1.35,0,.78,0,1.37,0,1.24-.07,1.66-.07c.1,0,.15.09.15.28s-.05.27-.15.27c-.81.1-1.23.32-1.23.64a1.91,1.91,0,0,0,.4,1l2.78,4.33,2.9-4.34a1.51,1.51,0,0,0,.29-.78.58.58,0,0,0-.34-.56,3.66,3.66,0,0,0-1.18-.28c-.07,0-.11-.09-.11-.27s.06-.28.16-.28c.39,0,.86,0,1.41.07s1,0,1.3,0a9.68,9.68,0,0,0,1,0,8.22,8.22,0,0,1,1.07-.07c.11,0,.15.09.15.28"/><path class="cls-3" d="M149.83,14.43a12.79,12.79,0,0,0-1,4.62c6.34-.85,12.48-1.7,18.5-2.55a6.66,6.66,0,0,0,1.51-.79c1.38,0,3.23,1.28,5.63,3.86A6.64,6.64,0,0,1,176,22.39q.26,1.29-1.56,1.29c-2.2-.34-6.06.69-11.53,3.07-1.54.69-2,.52-1.28-.51,2.57-2.39,4.52-4.36,5.89-5.91.52-.85.35-1.28-.48-1.28l-11.82,1q-11.05,1-16.7,2.06a54.9,54.9,0,0,1-10.26,1.28c-.36,3.6-.86,5.92-1.54,6.94-.86,1.36-1.73,2-2.58,1.8-.85-.35-1.44-1.44-1.79-3.35-.17-1.7,0-2.72.51-3.07a36.84,36.84,0,0,0,3.86-5.66c.49-1.54.83-2.21,1-2,.53-.18.79.49.79,2v1.3q9.74-1,16.43-1.8c-.17-2.4-.35-4.28-.53-5.66-1.53-1.53-2.3-2.82-2.3-3.84a3.15,3.15,0,0,1,2.57,0c3.59,1,5.29,2.47,5.13,4.36m9.25,14.37c.66.53.66,1,0,1.55l-.53.52a51.63,51.63,0,0,1-4.09,9.51c-1.55,1.55-2.93,1.29-4.12-.8l-4.64.8a5.38,5.38,0,0,1,1.56,1.29c.52.81.6,1.44.26,1.79l-4.62,5.63q7.95-1.31,13.85-2.53a15.22,15.22,0,0,1,1.8-.82c1-.19,2.83.72,5.39,2.55.85.9,1,1.45.54,1.81a11.63,11.63,0,0,0-1,1.27l-5.38,11.86c-1.39,1.85-2.66,1.79-3.87-.27-.17-.54-.33-1-.52-1.54l-14.11,2.3v.79c0,.51-.35.83-1,1a1.6,1.6,0,0,1-1.55-.25,7,7,0,0,1-2-2.84l-3.59-9.71-1.28-2.06c-.18-.74.08-.91.76-.84a10.67,10.67,0,0,0,4.37.55l5.39-1c1.71-3.63,2.32-6.44,1.79-8.53l-2,.55a2.06,2.06,0,0,1-2,1,2.86,2.86,0,0,1-1.83-1.78l-3.07-9.48c-.68-1-.93-1.63-.76-1.79.5-.34,1.8,0,3.83,1l1.3-.26,13.35-2.57a12.87,12.87,0,0,0,2.55-1c.35-.35.87-.35,1.57,0,1.7,1,3,1.8,3.85,2.3M135.45,52.17a4,4,0,0,1,1,1.55c.87,2.35,1.73,5.06,2.58,8,3.76-.72,8.48-1.63,14.12-2.83a6.23,6.23,0,0,1,1.79.23l2.86-8.73c.31-1,.06-1.53-.8-1.53ZM138,33.69l1.53,5.89.26.27,3.09-.54a75.68,75.68,0,0,1,8.47-1.77l1.28-5.39.26-1.8c0-.51-.43-.76-1.3-.76l-13.85,2.82Z"/><path class="cls-4" d="M149.83,14.43a12.79,12.79,0,0,0-1,4.62c6.34-.85,12.48-1.7,18.5-2.55a6.66,6.66,0,0,0,1.51-.79c1.38,0,3.23,1.28,5.63,3.86A6.64,6.64,0,0,1,176,22.39q.26,1.29-1.56,1.29c-2.2-.34-6.06.69-11.53,3.07-1.54.69-2,.52-1.28-.51,2.57-2.39,4.52-4.36,5.89-5.91.52-.85.35-1.28-.48-1.28l-11.82,1q-11.05,1-16.7,2.06a54.9,54.9,0,0,1-10.26,1.28c-.36,3.6-.86,5.92-1.54,6.94-.86,1.36-1.73,2-2.58,1.8-.85-.35-1.44-1.44-1.79-3.35-.17-1.7,0-2.72.51-3.07a36.84,36.84,0,0,0,3.86-5.66c.49-1.54.83-2.21,1-2,.53-.18.79.49.79,2v1.3q9.74-1,16.43-1.8c-.17-2.4-.35-4.28-.53-5.66-1.53-1.53-2.3-2.82-2.3-3.84a3.15,3.15,0,0,1,2.57,0C148.29,11.09,150,12.54,149.83,14.43Zm9.25,14.37c.66.53.66,1,0,1.55l-.53.52a51.63,51.63,0,0,1-4.09,9.51c-1.55,1.55-2.93,1.29-4.12-.8l-4.64.8a5.38,5.38,0,0,1,1.56,1.29c.52.81.6,1.44.26,1.79l-4.62,5.63q7.95-1.31,13.85-2.53a15.22,15.22,0,0,1,1.8-.82c1-.19,2.83.72,5.39,2.55.85.9,1,1.45.54,1.81a11.63,11.63,0,0,0-1,1.27l-5.38,11.86c-1.39,1.85-2.66,1.79-3.87-.27-.17-.54-.33-1-.52-1.54l-14.11,2.3v.79c0,.51-.35.83-1,1a1.6,1.6,0,0,1-1.55-.25,7,7,0,0,1-2-2.84l-3.59-9.71-1.28-2.06c-.18-.74.08-.91.76-.84a10.67,10.67,0,0,0,4.37.55l5.39-1c1.71-3.63,2.32-6.44,1.79-8.53l-2,.55a2.06,2.06,0,0,1-2,1,2.86,2.86,0,0,1-1.83-1.78l-3.07-9.48c-.68-1-.93-1.63-.76-1.79.5-.34,1.8,0,3.83,1l1.3-.26,13.35-2.57a12.87,12.87,0,0,0,2.55-1c.35-.35.87-.35,1.57,0C156.93,27.52,158.21,28.3,159.08,28.8ZM135.45,52.17a4,4,0,0,1,1,1.55c.87,2.35,1.73,5.06,2.58,8,3.76-.72,8.48-1.63,14.12-2.83a6.23,6.23,0,0,1,1.79.23l2.86-8.73c.31-1,.06-1.53-.8-1.53ZM138,33.69l1.53,5.89.26.27,3.09-.54a75.68,75.68,0,0,1,8.47-1.77l1.28-5.39.26-1.8c0-.51-.43-.76-1.3-.76l-13.85,2.82Z"/><path class="cls-3" d="M198.1,15.45a1.75,1.75,0,0,1,1,2.32c-.49,3.93-.93,10.27-1.27,19,1-.18,2.4-.53,4.11-1V29.59a5.13,5.13,0,0,0-.52-3.35c-.17-1,.16-1.46,1-1.28a6.84,6.84,0,0,1,3.87,4.11q-.27,2.84-.77,5.38h1.52q13.11-2.55,26.75-5.12a18.17,18.17,0,0,0,2-1.55,15.91,15.91,0,0,1,7.25,2.57c.52,1,.18,1.8-1.36,2.31-3.63,0-7.32.09-11,.26.95,1.2,1.49,2,1.49,2.58v7.71c0,6.79.1,13.31.27,19.47a16.53,16.53,0,0,1-1.76,6.19c-.7,1.19-1.69.94-2.85-.77a39.83,39.83,0,0,0-9.48-6.41c-.35-.36-.26-.55.23-.55a44.94,44.94,0,0,0,7.43,1,2,2,0,0,0,2.06-1.77c0-3.24.08-6.86.24-10.76l.25-14.41a3,3,0,0,0-1.73-1.82c-6.72.71-13.4,1.72-20.05,3.08H205.3c-.2,1.74-.46,3.45-.79,5.18-.36,1-.77,1.62-1.29,1.79a2.05,2.05,0,0,1-1.53-2.07l.25-3.35c-4.63,1.72-8.39,3.08-11.3,4.11a7.85,7.85,0,0,0-2.3,1.79c-.35,1.07-.94.81-1.8-.73-.5-1.06-1-2.09-1.55-3.08.34-1.06.7-2.09,1-3.09a30.73,30.73,0,0,0,1.26-9,1.09,1.09,0,0,1,.25-1.54q3.09.77,3.09,3.59c-.35,2.06-.77,5-1.26,9a42.73,42.73,0,0,0,5.11-1.3V18.28a6.33,6.33,0,0,0-1.56-3.59c-.48-1.19-.23-1.71.79-1.54a22.33,22.33,0,0,1,4.38,2.3m24.34-4.36a47.17,47.17,0,0,1-1,4.88,58.71,58.71,0,0,0,6.18-1.8,4,4,0,0,1,1.76-.76c2.35.17,4.19.76,5.09,1.8.89.86.72,1.45-.45,1.78-.83,0-2.29.1-4.1.27a68.41,68.41,0,0,0-8.71,1l-1.34,2.83a37.35,37.35,0,0,1,8.23,1.79A12.08,12.08,0,0,1,231.67,27c.35,1,0,1.53-.95,1.53a4.91,4.91,0,0,1-2.61-1c-2.24-1.19-5.13-3-8.74-5.39a31.79,31.79,0,0,1-11.8,11c-.86.17-.93-.07-.24-.75a35.91,35.91,0,0,0,9-13.1c-1.85.35-3.83.76-5.91,1.28a8.3,8.3,0,0,1-2.82-1c-.51-.52-.42-.79.27-.79,1.2,0,4.29-.66,9.24-2,.17-1.53.36-3.24.53-5.12A6.14,6.14,0,0,0,216.3,9c-.83-1.2-.74-1.88.26-2a10.19,10.19,0,0,1,4.15,1.27c1.82.86,2.43,1.8,1.73,2.82m1.35,28.22c.84.54.92,1.15.26,1.81l-2.83,6.71a1.6,1.6,0,0,1-1.34,1c-.17,0-.51-.28-1-.73l-4.6,1a3.11,3.11,0,0,1-1.8,1,2.39,2.39,0,0,1-1.28-1c-1.05-3.08-1.81-5.48-2.31-7.16a19.5,19.5,0,0,0-1.31-1.8c0-.9.35-1.21,1-1.06a21.11,21.11,0,0,1,2.85.78L218.87,38c.66-.67,1.19-.91,1.56-.75a36.36,36.36,0,0,0,3.36,2m-11.58,2.36L214,47.28c1-.18,2.48-.54,4.4-1l.74-5.17a.65.65,0,0,0-.74-.74c-2.78.64-4.84,1.11-6.18,1.29"/><path class="cls-4" d="M198.1,15.45a1.75,1.75,0,0,1,1,2.32c-.49,3.93-.93,10.27-1.27,19,1-.18,2.4-.53,4.11-1V29.59a5.13,5.13,0,0,0-.52-3.35c-.17-1,.16-1.46,1-1.28a6.84,6.84,0,0,1,3.87,4.11q-.27,2.84-.77,5.38h1.52q13.11-2.55,26.75-5.12a18.17,18.17,0,0,0,2-1.55,15.91,15.91,0,0,1,7.25,2.57c.52,1,.18,1.8-1.36,2.31-3.63,0-7.32.09-11,.26.95,1.2,1.49,2,1.49,2.58v7.71c0,6.79.1,13.31.27,19.47a16.53,16.53,0,0,1-1.76,6.19c-.7,1.19-1.69.94-2.85-.77a39.83,39.83,0,0,0-9.48-6.41c-.35-.36-.26-.55.23-.55a44.94,44.94,0,0,0,7.43,1,2,2,0,0,0,2.06-1.77c0-3.24.08-6.86.24-10.76l.25-14.41a3,3,0,0,0-1.73-1.82c-6.72.71-13.4,1.72-20.05,3.08H205.3c-.2,1.74-.46,3.45-.79,5.18-.36,1-.77,1.62-1.29,1.79a2.05,2.05,0,0,1-1.53-2.07l.25-3.35c-4.63,1.72-8.39,3.08-11.3,4.11a7.85,7.85,0,0,0-2.3,1.79c-.35,1.07-.94.81-1.8-.73-.5-1.06-1-2.09-1.55-3.08.34-1.06.7-2.09,1-3.09a30.73,30.73,0,0,0,1.26-9,1.09,1.09,0,0,1,.25-1.54q3.09.77,3.09,3.59c-.35,2.06-.77,5-1.26,9a42.73,42.73,0,0,0,5.11-1.3V18.28a6.33,6.33,0,0,0-1.56-3.59c-.48-1.19-.23-1.71.79-1.54A22.33,22.33,0,0,1,198.1,15.45Zm24.34-4.36a47.17,47.17,0,0,1-1,4.88,58.71,58.71,0,0,0,6.18-1.8,4,4,0,0,1,1.76-.76c2.35.17,4.19.76,5.09,1.8.89.86.72,1.45-.45,1.78-.83,0-2.29.1-4.1.27a68.41,68.41,0,0,0-8.71,1l-1.34,2.83a37.35,37.35,0,0,1,8.23,1.79A12.08,12.08,0,0,1,231.67,27c.35,1,0,1.53-.95,1.53a4.91,4.91,0,0,1-2.61-1c-2.24-1.19-5.13-3-8.74-5.39a31.79,31.79,0,0,1-11.8,11c-.86.17-.93-.07-.24-.75a35.91,35.91,0,0,0,9-13.1c-1.85.35-3.83.76-5.91,1.28a8.3,8.3,0,0,1-2.82-1c-.51-.52-.42-.79.27-.79,1.2,0,4.29-.66,9.24-2,.17-1.53.36-3.24.53-5.12A6.14,6.14,0,0,0,216.3,9c-.83-1.2-.74-1.88.26-2a10.19,10.19,0,0,1,4.15,1.27C222.53,9.13,223.14,10.07,222.44,11.09Zm1.35,28.22c.84.54.92,1.15.26,1.81l-2.83,6.71a1.6,1.6,0,0,1-1.34,1c-.17,0-.51-.28-1-.73l-4.6,1a3.11,3.11,0,0,1-1.8,1,2.39,2.39,0,0,1-1.28-1c-1.05-3.08-1.81-5.48-2.31-7.16a19.5,19.5,0,0,0-1.31-1.8c0-.9.35-1.21,1-1.06a21.11,21.11,0,0,1,2.85.78L218.87,38c.66-.67,1.19-.91,1.56-.75A36.36,36.36,0,0,0,223.79,39.31Zm-11.58,2.36L214,47.28c1-.18,2.48-.54,4.4-1l.74-5.17a.65.65,0,0,0-.74-.74C215.61,41,213.55,41.49,212.21,41.67Z"/><path class="cls-3" d="M280.73,15q-.24,1.78-.74,9.23a48.16,48.16,0,0,1-.75,5.9c3.1-.5,5.36-.93,6.91-1.29,3.92-.68,6.17-1.18,6.68-1.53a4,4,0,0,1,2.05-1.54c3.76.85,6.24,1.89,7.44,3.07s1,2-.52,2.83c-.86,0-2.48.08-4.89.25-1.88,0-4.18.09-6.94.27-4.07.35-7.84.77-11.28,1.27-.36,1.9-.72,3.53-1.05,4.89q9,8.17,17.24,14.4a50.17,50.17,0,0,0,16.42,8.17,1.1,1.1,0,0,1-.26,1.54c-2.74.54-5,1-6.93,1.3-1.88.15-3.68.24-5.37.24-1.38.18-3-1-4.9-3.56-5.44-7-11-13.84-16.68-20.55a34.68,34.68,0,0,1-9.24,14.86c-3.37,3.63-8.53,7-15.23,10.05-.71-.17-.8-.53-.09-1a39.47,39.47,0,0,0,13-11.81c3.63-4.27,6.26-10.15,8.05-17.7-6,1.38-10.5,2.28-13.39,2.83a14.53,14.53,0,0,1-4.58-1.54c-.67-.71-.5-1,.41-1,2,.17,8-.94,18-3.33.33-3.77.49-6.84.49-9.24,0-2.74-.09-5.05-.23-6.92a4.79,4.79,0,0,0-1.52-2.07c-.92-1.19-1.09-2.22-.56-3.07a11.32,11.32,0,0,1,3.63.51c4.28,1.87,5.91,3.42,4.85,4.63"/><path class="cls-4" d="M280.73,15q-.24,1.78-.74,9.23a48.16,48.16,0,0,1-.75,5.9c3.1-.5,5.36-.93,6.91-1.29,3.92-.68,6.17-1.18,6.68-1.53a4,4,0,0,1,2.05-1.54c3.76.85,6.24,1.89,7.44,3.07s1,2-.52,2.83c-.86,0-2.48.08-4.89.25-1.88,0-4.18.09-6.94.27-4.07.35-7.84.77-11.28,1.27-.36,1.9-.72,3.53-1.05,4.89q9,8.17,17.24,14.4a50.17,50.17,0,0,0,16.42,8.17,1.1,1.1,0,0,1-.26,1.54c-2.74.54-5,1-6.93,1.3-1.88.15-3.68.24-5.37.24-1.38.18-3-1-4.9-3.56-5.44-7-11-13.84-16.68-20.55a34.68,34.68,0,0,1-9.24,14.86c-3.37,3.63-8.53,7-15.23,10.05-.71-.17-.8-.53-.09-1a39.47,39.47,0,0,0,13-11.81c3.63-4.27,6.26-10.15,8.05-17.7-6,1.38-10.5,2.28-13.39,2.83a14.53,14.53,0,0,1-4.58-1.54c-.67-.71-.5-1,.41-1,2,.17,8-.94,18-3.33.33-3.77.49-6.84.49-9.24,0-2.74-.09-5.05-.23-6.92a4.79,4.79,0,0,0-1.52-2.07c-.92-1.19-1.09-2.22-.56-3.07a11.32,11.32,0,0,1,3.63.51C280.16,12.2,281.79,13.75,280.73,15Z"/><path class="cls-3" d="M361.62,9.82a8.67,8.67,0,0,1,1.54,2.31c.49.67.33,1.28-.5,1.78l-8.75,9.25,11-1.79c.68-.52,1.11-.69,1.27-.52A22.64,22.64,0,0,1,372.16,25l.74,1.28c.35.34.18.68-.5,1A30,30,0,0,0,367,28.54a57.71,57.71,0,0,0-7.7,4.38c-.69.33-.94.08-.78-.77l5.69-6.94a1.24,1.24,0,0,0-1.3-.77c-9.77,1.21-21.13,2.66-34.15,4.36l-2.57-.5c-.34,3.94-1.2,6.93-2.55,9-.87,1.2-1.73,1.11-2.57-.25-.87-3.08-.87-5.07,0-5.92a12,12,0,0,0,4.1-7.19c.14-.34.41-.34.77,0l.25,2.31a12.77,12.77,0,0,0,3.88,0c7.85-1.2,15.22-2.13,22.06-2.82,1.71-3.59,3.35-7.27,4.87-11a2.4,2.4,0,0,0-.26-2.83c-.16-1.54,0-2.13.52-1.79a7,7,0,0,1,4.37,2.06m-9.26,19.51c3.43,1.38,5.13,2.47,5.13,3.33l-1.79.76-10,7a32.89,32.89,0,0,1,2.57,3.31l13.34-1.76a27.31,27.31,0,0,0,2.58-1.55c.32-.53,1.35-.44,3,.22,1.4.52,2.75,1.16,4.13,1.79,1,.72,1.36,1.45,1,2.36-.17.32-.69.54-1.54.71A174.37,174.37,0,0,0,349,46.56l.26,1a49.89,49.89,0,0,1,.5,7.7A37.17,37.17,0,0,1,349,63a14.65,14.65,0,0,1-2.56,5.64c-1,.87-1.71,1-2.08.27a26.86,26.86,0,0,0-8.44-8c-.35-.48-.27-.73.25-.73a25,25,0,0,0,7.69,1,2.27,2.27,0,0,0,1.28-1.26c.53-1.54.69-5.89.53-13.14L338,48.1c-6,1.18-10.6,2.09-13.84,2.8l-3.09-1.53c-.16-.54-.16-.82,0-.82q12.07-2,24.12-4.35a20.35,20.35,0,0,0-1.54-3.35l-.76-.72v-.55c0-.35.67-.35,2.07,0l4.85-6.16c.85-1,.68-1.37-.5-1l-13.87,4.36a2.21,2.21,0,0,1-1.78.27l-3.35-2.59c-.5-.49-.43-.76.25-.76a13.63,13.63,0,0,0,2.84.27l15.13-3.35c2.22-1,3.51-1.45,3.84-1.28M333.65,15.71a7,7,0,0,1,2,4.12c.18,1.7-.51,2.3-2,1.79-2.08-.85-4.21-3.25-6.43-7.19-.51-.85-.35-1.1.51-.77a27.55,27.55,0,0,1,5.92,2.05M346.72,15c.86,1.7.86,3.16,0,4.35-.85.85-1.77.76-2.82-.26-2.92-3.08-4.7-6.07-5.39-9,0-.52.26-.61.78-.25Z"/><path class="cls-4" d="M361.62,9.82a8.67,8.67,0,0,1,1.54,2.31c.49.67.33,1.28-.5,1.78l-8.75,9.25,11-1.79c.68-.52,1.11-.69,1.27-.52A22.64,22.64,0,0,1,372.16,25l.74,1.28c.35.34.18.68-.5,1A30,30,0,0,0,367,28.54a57.71,57.71,0,0,0-7.7,4.38c-.69.33-.94.08-.78-.77l5.69-6.94a1.24,1.24,0,0,0-1.3-.77c-9.77,1.21-21.13,2.66-34.15,4.36l-2.57-.5c-.34,3.94-1.2,6.93-2.55,9-.87,1.2-1.73,1.11-2.57-.25-.87-3.08-.87-5.07,0-5.92a12,12,0,0,0,4.1-7.19c.14-.34.41-.34.77,0l.25,2.31a12.77,12.77,0,0,0,3.88,0c7.85-1.2,15.22-2.13,22.06-2.82,1.71-3.59,3.35-7.27,4.87-11a2.4,2.4,0,0,0-.26-2.83c-.16-1.54,0-2.13.52-1.79A7,7,0,0,1,361.62,9.82Zm-9.26,19.51c3.43,1.38,5.13,2.47,5.13,3.33l-1.79.76-10,7a32.89,32.89,0,0,1,2.57,3.31l13.34-1.76a27.31,27.31,0,0,0,2.58-1.55c.32-.53,1.35-.44,3,.22,1.4.52,2.75,1.16,4.13,1.79,1,.72,1.36,1.45,1,2.36-.17.32-.69.54-1.54.71A174.37,174.37,0,0,0,349,46.56l.26,1a49.89,49.89,0,0,1,.5,7.7A37.17,37.17,0,0,1,349,63a14.65,14.65,0,0,1-2.56,5.64c-1,.87-1.71,1-2.08.27a26.86,26.86,0,0,0-8.44-8c-.35-.48-.27-.73.25-.73a25,25,0,0,0,7.69,1,2.27,2.27,0,0,0,1.28-1.26c.53-1.54.69-5.89.53-13.14L338,48.1c-6,1.18-10.6,2.09-13.84,2.8l-3.09-1.53c-.16-.54-.16-.82,0-.82q12.07-2,24.12-4.35a20.35,20.35,0,0,0-1.54-3.35l-.76-.72v-.55c0-.35.67-.35,2.07,0l4.85-6.16c.85-1,.68-1.37-.5-1l-13.87,4.36a2.21,2.21,0,0,1-1.78.27l-3.35-2.59c-.5-.49-.43-.76.25-.76a13.63,13.63,0,0,0,2.84.27l15.13-3.35C350.74,29.59,352,29.16,352.36,29.33ZM333.65,15.71a7,7,0,0,1,2,4.12c.18,1.7-.51,2.3-2,1.79-2.08-.85-4.21-3.25-6.43-7.19-.51-.85-.35-1.1.51-.77A27.55,27.55,0,0,1,333.65,15.71ZM346.72,15c.86,1.7.86,3.16,0,4.35-.85.85-1.77.76-2.82-.26-2.92-3.08-4.7-6.07-5.39-9,0-.52.26-.61.78-.25Z"/></g></g></svg>