<svg xmlns="http://www.w3.org/2000/svg" viewBox="0 0 573.22 100"><defs><style>.cls-1{fill:#003b82;}</style></defs><title>logo-uk</title><g id="レイヤー_2" data-name="レイヤー 2"><g id="レイヤー_1-2" data-name="レイヤー 1"><path class="cls-1" d="M146.76,97.7h-3.71V83h-5.39V79.86h14.49V83h-5.39Z"/><path class="cls-1" d="M158,89.71v8h-3.72V79.86H158v6.77h6.94V79.86h3.74V97.7h-3.74v-8Z"/><path class="cls-1" d="M185.36,83H175.9v3.76h8.69v3.16H175.9v4.62h9.89V97.7H172.27V79.86h13.09Z"/><path class="cls-1" d="M210,91.48c0,4.69-2.83,6.69-7.32,6.69A7.66,7.66,0,0,1,197,96a6.49,6.49,0,0,1-1.38-4.32V79.86h3.79V91.45c0,2.48,1.44,3.57,3.18,3.57,2.55,0,3.59-1.23,3.59-3.4V79.86H210Z"/><path class="cls-1" d="M224.48,79.86h3.46V97.7h-3.71L217,85h0V97.7h-3.48V79.86h3.92l7.08,12.43h0Z"/><path class="cls-1" d="M235,97.7h-3.72V79.86H235Z"/><path class="cls-1" d="M248.73,79.86h3.87L246.54,97.7H243l-6-17.84h4l3.82,13.52h.05Z"/><path class="cls-1" d="M268.06,83h-9.45v3.76h8.68v3.16h-8.68v4.62h9.87V97.7H255V79.86h13.1Z"/><path class="cls-1" d="M275.16,87.72V83h4.63c2.18,0,2.61,1.39,2.61,2.32,0,1.78-.94,2.44-2.87,2.44Zm-3.64,10h3.64v-7H279c2.77,0,2.91,1,2.91,3.37a12.23,12.23,0,0,0,.39,3.6h4.13v-.47c-.81-.3-.81-.94-.81-3.55,0-3.32-.78-3.87-2.24-4.51a4.27,4.27,0,0,0,2.75-4.25c0-1.54-.87-5.06-5.6-5.06h-9Z"/><path class="cls-1" d="M292.07,92.21c0,1,.52,2.89,3.76,2.89,1.77,0,3.72-.42,3.72-2.31,0-1.4-1.33-1.76-3.21-2.21l-1.91-.45c-2.89-.67-5.66-1.31-5.66-5.23,0-2,1.06-5.5,6.85-5.5,5.45,0,6.92,3.58,6.94,5.77H299c-.1-.81-.4-2.69-3.64-2.69-1.42,0-3.11.53-3.11,2.14,0,1.39,1.14,1.69,1.89,1.86l4.34,1.07c2.43.61,4.66,1.6,4.66,4.78,0,5.37-5.45,5.84-7,5.84-6.49,0-7.61-3.75-7.61-6Z"/><path class="cls-1" d="M309.38,97.7h-3.73V79.86h3.73Z"/><path class="cls-1" d="M320.42,97.7H316.7V83h-5.39V79.86h14.5V83h-5.39Z"/><path class="cls-1" d="M336.37,97.7h-3.71V91l-6.17-11.12h4.4l3.69,7.77,3.53-7.77h4.21L336.37,91Z"/><path class="cls-1" d="M354.38,88.79c0-5,2.82-6.23,4.84-6.23s4.83,1.25,4.83,6.23S361.22,95,359.22,95,354.38,93.79,354.38,88.79Zm-3.72,0c0,8.36,6.2,9.38,8.56,9.38s8.55-1,8.55-9.38-6.2-9.39-8.55-9.39S350.66,80.42,350.66,88.79Z"/><path class="cls-1" d="M374.47,97.7h-3.72V79.86h12.68V83h-9v4h7.83v3.15h-7.83Z"/><path class="cls-1" d="M396.79,97.7h-3.72V79.86h3.72v7.28l6.81-7.28h4.8l-7.26,7.32,7.69,10.52H404l-5.5-7.82-1.74,1.8Z"/><path class="cls-1" d="M414.14,97.7h-3.73V79.86h3.73Z"/><path class="cls-1" d="M425.17,97.7h-3.71V83h-5.4V79.86h14.5V83h-5.39Z"/><path class="cls-1" d="M439.81,83.89h.06L442.06,91h-4.54ZM436.53,94h6.57l1.15,3.67h4.05L442,79.86h-4.29L431.37,97.7h3.92Z"/><path class="cls-1" d="M454.67,97.7h-3.73V79.86h3.73v7.28l6.79-7.28h4.81L459,87.18,466.7,97.7h-4.79l-5.51-7.82-1.73,1.8Z"/><path class="cls-1" d="M476.94,97.7h-3.72V91l-6.15-11.12h4.39l3.7,7.77,3.52-7.77h4.22l-6,11.17Z"/><path class="cls-1" d="M499.39,91.48c0,4.69-2.82,6.69-7.32,6.69A7.65,7.65,0,0,1,486.41,96,6.54,6.54,0,0,1,485,91.7V79.86h3.8V91.45c0,2.48,1.43,3.57,3.16,3.57,2.55,0,3.6-1.23,3.6-3.4V79.86h3.8Z"/><path class="cls-1" d="M505.68,92.21c0,1,.52,2.89,3.78,2.89,1.75,0,3.72-.42,3.72-2.31,0-1.4-1.34-1.76-3.23-2.21l-1.9-.45c-2.88-.67-5.66-1.31-5.66-5.23,0-2,1.07-5.5,6.84-5.5,5.45,0,6.92,3.58,6.94,5.77h-3.56c-.11-.81-.4-2.69-3.65-2.69-1.41,0-3.09.53-3.09,2.14,0,1.39,1.13,1.69,1.88,1.86l4.34,1.07c2.44.61,4.66,1.6,4.66,4.78,0,5.37-5.46,5.84-7,5.84-6.5,0-7.61-3.75-7.61-6Z"/><path class="cls-1" d="M523.18,89.71v8h-3.73V79.86h3.73v6.77h6.94V79.86h3.72V97.7h-3.72v-8Z"/><path class="cls-1" d="M551.76,91.48c0,4.69-2.83,6.69-7.33,6.69A7.68,7.68,0,0,1,538.77,96a6.6,6.6,0,0,1-1.38-4.32V79.86h3.79V91.45c0,2.48,1.44,3.57,3.18,3.57,2.55,0,3.59-1.23,3.59-3.4V79.86h3.81Z"/><path class="cls-1" d="M122.41,56.33a146.15,146.15,0,0,0,16.15-3.79V33.72H123.09V24.34h15.47V10.86h9.62v59h-9.62V62.54c-4.16,1.55-8.88,3.1-14.47,4.66Zm31.68-45.47h9.68v16.9a79.72,79.72,0,0,0,11.8-9.38L182,26.82a83.19,83.19,0,0,1-18.25,12V57.94c0,.56,0,1.81,1.49,1.81h5.41a1.58,1.58,0,0,0,1.79-1.25,69.9,69.9,0,0,0,.44-10.62l8.88,3c-.05,2.35-.37,11.35-1.42,14.21a6.28,6.28,0,0,1-5.66,4h-15a5.37,5.37,0,0,1-5.65-5.66Z"/><path class="cls-1" d="M187.58,60.61c16.27-8.07,17.39-21.92,18-29.88H188.82V21.3H206c.07-2.24.13-4.29.07-10.44h9.62c-.06,2.8-.06,4.73-.31,10.44h18.69V58.56c0,.87,0,1.37,1.12,1.37h1.62a1.34,1.34,0,0,0,1.49-1c.37-1.24.62-10.12.62-11.86l8.82,2.74c-.06,1.92-.37,9.87-1.31,13.9a6.59,6.59,0,0,1-6.82,5.41h-8.39c-4.16,0-6.7-2.06-6.7-6.27V30.73h-9.69c-.26,2.81-.69,7.65-1.31,11.5a37.33,37.33,0,0,1-20,27.39Z"/><path class="cls-1" d="M273.86,25.65,278,23.78c1.94,4.1,2.93,6.64,4.24,9.94V12.48h8.69V25l4.29-2a73.67,73.67,0,0,1,5.65,11.05v-23h8.94V69.88h-8.94V44.15l-5.22,2.92a90,90,0,0,0-4.72-13.91V67.38h-8.69V44.91l-5.34,2.59a101,101,0,0,0-3.05-11.79A78.93,78.93,0,0,1,273,45.82c-1.8,11.94-5.72,18.64-11.24,24.35L254,63.35c3.16-3.17,6.89-7.52,8.81-13.29C264.61,44.47,265,36.64,265,34.4V11.61h8.82Zm-10.74-1.87c.05,3.48-.13,17-3.55,26.28l-7.25-5.54a36.8,36.8,0,0,0,2.48-10.37,78.49,78.49,0,0,0,.43-11Z"/><path class="cls-1" d="M343,10.74h9.88V16h24.71v9.25H352.7v4.54h20.62V58.88c0,5.64-4.43,6.46-5.91,6.46h-9.75l-1.87-9.76h6.78c1.23,0,1.23-.44,1.23-1.56V38.69H352.7V69.93h-9.52V38.69H332.49v27H323V29.81h20.17V25.27H318.35V16H343Z"/><path class="cls-1" d="M408,10.81h10.13v8.13h22.91v9.32H385.25V18.94H408Zm-5.51,19.36c3.22,8.21,4.83,18.89,5.4,24.67l-10.07,1.42a86.47,86.47,0,0,0-4.66-24ZM383.88,58.25h32.61a207.67,207.67,0,0,0,7-28.38l10.67,1.61a192.79,192.79,0,0,1-7.69,26.77h16.08v9.32H383.88Z"/><path class="cls-1" d="M448.31,59.86c16.4-6,21.72-15.21,23.85-25.64H449.11V24.65H473V10.86h9.94V24.65h24.78v9.57H484.14c3.73,14.53,11.5,21.54,24.84,26l-5.34,9.44c-6.15-2.42-19.44-8.39-25.08-25-4.36,10.62-11.68,18.94-25.22,24.84Z"/><path class="cls-1" d="M562.47,31.61H524.9V28.18h37.57ZM515.65,20.05V35.39h7.94v4.35h23.48a17.89,17.89,0,0,1-5.71,3.3h-2.48v3.1H514.16v8.51h24.72v3.91c0,2.24-.55,2.36-2.18,2.36h-9l1.5,9h13.42c3.78,0,6.08-2.61,6.08-6.4V54.65h24.47V46.14H551c6.84-3.35,9.26-4.85,12.81-7.45v-3.3h7.89V20.05h-6A65.08,65.08,0,0,0,569.31,13l-9.95-2.17a46.89,46.89,0,0,1-3.71,9.24h-5.73a44.47,44.47,0,0,0-4-9.43l-9.45,2.1A56.11,56.11,0,0,1,540,20.05h-7.58a43.62,43.62,0,0,0-4.78-9l-9.32,2.43A55.52,55.52,0,0,1,522,20.05Z"/><path class="cls-1" d="M24.67,85.42a50.11,50.11,0,0,1,0-70.85A49.61,49.61,0,0,1,52.66.44c-.9,0-1.81-.07-2.73-.07H49A50.86,50.86,0,0,0,9.27,50,50.88,50.88,0,0,0,49,99.63h.92c.94,0,1.86,0,2.78-.08A49.64,49.64,0,0,1,24.67,85.42Z"/><path class="cls-1" d="M42.56,92.62a60.28,60.28,0,0,1,0-85.41A60,60,0,0,1,50.7.38H49.44A59.77,59.77,0,0,0,42,6.69a61.12,61.12,0,0,0,0,86.47,60.86,60.86,0,0,0,7.62,6.48h1.27A59.93,59.93,0,0,1,42.56,92.62Z"/><path class="cls-1" d="M46.18,90.21a104.61,104.61,0,0,1,0-81.2Q48,4.57,50.3.38h-.83q-2.16,4.06-4,8.34a105.32,105.32,0,0,0,0,81.77c1.33,3.13,2.79,6.19,4.39,9.15h.84A103.38,103.38,0,0,1,46.18,90.21Z"/><path class="cls-1" d="M75.39,85.42a50.11,50.11,0,0,0,0-70.85A49.61,49.61,0,0,0,47.41.44c.89,0,1.8-.07,2.72-.07h1A50.86,50.86,0,0,1,75.91,85.94,50.43,50.43,0,0,1,51,99.63h-.91c-.94,0-1.86,0-2.78-.08A49.64,49.64,0,0,0,75.39,85.42Z"/><path class="cls-1" d="M57.51,92.62A60.45,60.45,0,0,0,70.45,26.4,60.6,60.6,0,0,0,49.36.38h1.25A60,60,0,0,1,58,6.69a61.28,61.28,0,0,1,13.1,19.43,60.8,60.8,0,0,1,4.8,23.78,61,61,0,0,1-4.8,23.81A61.7,61.7,0,0,1,58,93.16a63.17,63.17,0,0,1-7.63,6.48H49.13A60,60,0,0,0,57.51,92.62Z"/><path class="cls-1" d="M53.88,90.21a103.84,103.84,0,0,0,8.19-40.62A103.5,103.5,0,0,0,53.88,9Q52,4.57,49.76.38h.83q2.16,4.06,4,8.34a104.25,104.25,0,0,1,8.25,40.87,104.47,104.47,0,0,1-8.25,40.9,100,100,0,0,1-4.41,9.15h-.82A103.38,103.38,0,0,0,53.88,90.21Z"/><rect class="cls-1" x="49.66" y="0.37" width="0.74" height="99.41"/><rect class="cls-1" x="0.34" y="49.61" width="99.3" height="0.72"/><path class="cls-1" d="M28.27,94.65c.25.1.5.23.75.35a35.15,35.15,0,0,1,42.27-.15l.73-.36a35.92,35.92,0,0,0-43.75.16Z"/><path class="cls-1" d="M17.26,87.27l.56.49A49,49,0,0,1,82,88c.19-.17.39-.32.57-.48a49.72,49.72,0,0,0-65.32-.2Z"/><path class="cls-1" d="M6,73l.35.64A83.1,83.1,0,0,1,50,61.26a82.6,82.6,0,0,1,32.45,6.55A81.41,81.41,0,0,1,93.7,73.59l.33-.65a82.12,82.12,0,0,0-11.27-5.81,84.26,84.26,0,0,0-65.43,0A81.42,81.42,0,0,0,6,73Z"/><path class="cls-1" d="M28.27,5.35,29,5a34.93,34.93,0,0,0,21.23,7.12,35,35,0,0,0,21-7l.73.35a35.61,35.61,0,0,1-21.77,7.36A35.78,35.78,0,0,1,28.27,5.35Z"/><path class="cls-1" d="M17.26,12.71l.56-.49a48.65,48.65,0,0,0,32,11.86A48.73,48.73,0,0,0,82,12l.57.47A49.42,49.42,0,0,1,49.81,24.82,49.43,49.43,0,0,1,17.26,12.71Z"/><path class="cls-1" d="M6,27l.35-.65A83.73,83.73,0,0,0,17.6,32.15,82.93,82.93,0,0,0,50,38.7a83,83,0,0,0,32.45-6.55A83.68,83.68,0,0,0,93.7,26.37c.11.22.22.43.33.66a85.55,85.55,0,0,1-11.27,5.8A83.58,83.58,0,0,1,50,39.43a83.47,83.47,0,0,1-32.7-6.6A84.83,84.83,0,0,1,6,27Z"/><path class="cls-1" d="M21,39.16l-.09.09v.31h0l-.1.09-.25.17-.31.16-.06,0-.05.06-.43.62-.33.46H20a.75.75,0,0,0,.49-.22l.07-.06.21-.19a1.29,1.29,0,0,1,.17-.15.15.15,0,0,1,.06,0h0a2.27,2.27,0,0,0,.23-.25l.05-.07V40.1l0-.11.2-.29.21-.34h0v0l.07-.16-.47-.33Z"/><polygon class="cls-1" points="18.91 41.36 18.9 41.08 18.63 41.08 18.47 41.08 18.24 41.08 18.18 41.28 18.18 41.3 18.18 41.08 17.82 41.16 17.64 41.2 17.44 41.26 17.41 41.46 17.39 41.69 17.33 42.19 17.78 42 18.02 41.91 18.18 41.84 18.29 42.26 18.64 41.94 18.82 41.78 18.92 41.69 18.92 41.55 18.91 41.36"/><polygon class="cls-1" points="26.39 32.31 26.45 32.32 26.52 32.22 26.44 32.21 26.39 32.31"/><path class="cls-1" d="M99.27,42.44l0-.46-1.11-.55-.35-.36-.59.24-1,.51c.52.39.1.17.83.42s.37-.11.57.23l.39.68.72.26.14.5s.06-.16.57.23c.17.13,0,.16.19.23C99.5,43.77,99.39,43.29,99.27,42.44Z"/><path class="cls-1" d="M33.3,24Z"/><path class="cls-1" d="M34.74,17.07l-.09-.34,0-.38L34.46,16l-.27-.1-.16,0-.28.43-.1.47-.06.56.09.86,0,.16,0,.45-.06.51s.07.4.08.54a1,1,0,0,1,0,.4c0,.12-.36.86-.36.86a.65.65,0,0,0,0,.53,1.5,1.5,0,0,1,.13.37,2.09,2.09,0,0,1,.09.36l-.06.51-.23.59s-.11.28,0,.4-.12.17.12.09l.07,0,.24-.12c.45-.22.39-.3.53-.19s.16.15.16.15a.65.65,0,0,0,0-.16c0-.13.09,0,0-.22s-.09-.16-.13-.27-.12-.05-.14-.24a2.36,2.36,0,0,0,0-.33c0-.11,0,.12,0-.19s-.09-.23.07-.34a.11.11,0,0,1,.09,0,.69.69,0,0,1,0-.16c.07-.38-.08-.29.12-.45a2.27,2.27,0,0,1,.41-.25l.17-.29.08-.25-.2-.8-.1-.35L34.7,19a2.39,2.39,0,0,1-.24-.18.92.92,0,0,1-.1-.27s-.15-.11,0-.32.2-.2.19-.33a3.41,3.41,0,0,0,0-.34l.16-.25Z"/><path class="cls-1" d="M34.13,22c0,.06,0,0,0,0Z"/><path class="cls-1" d="M15.19,41h0Z"/><path class="cls-1" d="M15.19,41h0S15.17,41,15.19,41Z"/><path class="cls-1" d="M14.83,41.48c-.6.81-.66.65-.73,1.12a3.17,3.17,0,0,1-.1.6c-.08.24.13.23.13.23l.28-.07a2.78,2.78,0,0,0,.42-.38c.12-.14.19-.29.29-.43a3,3,0,0,1,.37-.4c.11-.09,0-.13.33-.37a4.21,4.21,0,0,0,.63-.66l.11-.28a.9.9,0,0,0,.1-.41,3.93,3.93,0,0,0-.43.1,4.46,4.46,0,0,0-1,.44S15.16,41,14.83,41.48Z"/><path class="cls-1" d="M12,48.9h-.27l-.09.34.07.33.31.67v.57l0,.45.27.78h.25l.4-.23h.76l.14.33.4-.79L14.1,51l-.39-.11-.32-.11s0,.11-.2-.11-.45.12-.26-.56l.2-.68.49-.57.26-.57.13-.45-.11-.78-.07-.34-.46-.11-.44.34-.19.34-.29,1-.2.68Z"/><polygon class="cls-1" points="18.36 79.86 18.24 79.89 18.28 80.01 18.36 79.86"/><path class="cls-1" d="M6.48,44.5l.34-.1s.23,0,.75-.51l.52-.51s.08-.11,0-.15L7.65,43l-.45.06-.27.15-.27.06-.31.13-.43.24a.42.42,0,0,0-.15.37.59.59,0,0,0,.25.34l.19.08Z"/><path class="cls-1" d="M19.88,40.92c.14,0,.23-.1.37-.22s.22-.21.37-.33a1.75,1.75,0,0,0,.25-.27l0-.17-.26.21-.34.16Z"/><polygon class="cls-1" points="21.12 39.59 21.35 39.26 21.42 39.1 21.11 39.42 21.12 39.59"/><polygon class="cls-1" points="18.55 41.61 18.55 41.43 18.39 41.43 18.32 41.64 18.37 41.78 18.55 41.61"/><polygon class="cls-1" points="17.82 41.69 17.82 41.51 17.63 41.55 17.59 41.78 17.82 41.69"/><polygon class="cls-1" points="26.79 33.74 26.64 33.78 26.66 33.86 26.7 33.89 26.79 33.74"/><path class="cls-1" d="M17,26.4s0,0,0,0Z"/><path class="cls-1" d="M16.2,24.5c0,.06,0,0,0,0Z"/><path class="cls-1" d="M11.91,53.89l-.16.41-.23.26-.07.51a.23.23,0,0,1,.32-.14c.27.09.17-.23.17-.23l.39-.47.08-.34.06-.77-.4.3Z"/><polygon class="cls-1" points="13.98 53.38 13.92 53.99 14.1 54.41 14.35 54.5 14.51 54.02 14.49 53.65 14.13 53.08 14.21 52.84 13.98 53.38"/><path class="cls-1" d="M14.69,53.27l-.12.19.13.23.09.3H15a.44.44,0,0,0,.25-.09l.13-.13,0-.31-.26-.09Z"/><path class="cls-1" d="M19.3,54.12l.41.26.27.49c.11.16.27.56.44.79s.2.06.2.06l-.11-.4L20.39,55l0-.35-.16-.36-.2-.11L19.44,54Z"/><path class="cls-1" d="M15.79,55c0,.15.09.16.09.16l.22.08,0-.38-.18-.43-.19-.29-.05.43S15.75,54.87,15.79,55Z"/><polygon class="cls-1" points="14.97 53.07 14.96 52.89 14.83 52.79 14.54 52.69 14.41 52.78 14.63 53.08 14.97 53.07"/><path class="cls-1" d="M16.08,58.29a1.93,1.93,0,0,0,.54.18c.3.12,0-.24,0-.61a1,1,0,0,0,0-.36c0,.06.29.39.6.75s.25-.06.25-.06l-.14-.31S17,56.65,17,56.32s-.34-.39-.59-.48-.13.12-.33.29a.53.53,0,0,1-.5,0,.39.39,0,0,0-.38,0,.83.83,0,0,1-.45.11c-.13,0-.19.5-.06.61s.16,0,.5,0a2.28,2.28,0,0,1,.37.1l.23.29.12.18,0,.55C15.9,58.19,16,58.2,16.08,58.29Z"/><path class="cls-1" d="M14,65.74l0,0C13.84,65.78,14,65.74,14,65.74Z"/><path class="cls-1" d="M7.8,62.66c.26.19.31.29.48.4a4.35,4.35,0,0,0,.63.35c.17.06.34.18.47.22l.47.17a2.71,2.71,0,0,1,.51.45l.48.29.28-.11c.53-.21.39.31.53-.4s.14-.7.22-1,.29-.2.31-.61a3,3,0,0,1,0-.56c0-.13.58-.33.58-.33l.15-.17,0-.38-.22-.22a2.92,2.92,0,0,1-.39-.4.9.9,0,0,1-.14-.36l.12-.18a3.68,3.68,0,0,1-.22-.49,1.81,1.81,0,0,1,0-.54l0-.16.33.16s.26.05.25-.18.09.16.17-.17.28-.25.06-.51-.69-.6-.78-.86-.1-.48-.23-.61a1,1,0,0,0-.34-.21l-.38.08-.11.14-.09.15-.26.53-.33.33-.39-.18-.32.19-.16.36-.29.07-.44.33-.45.19-.1.55,0,.12L7.79,59l-.51-.23s.12-.18-.12.1a1.53,1.53,0,0,0-.32.51l0,.19.42.9a4.28,4.28,0,0,0,.11.67c0,.15-.09.28,0,.64S7.55,62.48,7.8,62.66Z"/><path class="cls-1" d="M18.88,63.25a2.45,2.45,0,0,0-.75,0l0,.5.57.17c.4.12.2.1.81.33s.1,0,.52.15.49-.08.84-.1.25-.16.25-.16l0-.44-.55.11a2.74,2.74,0,0,1-.71-.12c-.41-.12-.36-.2-.36-.2Z"/><path class="cls-1" d="M16.85,67.29s-.13.28,0,.45.73.71.73.71l.21.06,0-.36.2-.21.09-.47a.58.58,0,0,0,.07-.46l-.39-.69.26-.07s.05,0,.26.26a3.47,3.47,0,0,1,.44.85,1.29,1.29,0,0,0,.16.31l.21.23.35,0,.29-.09s.32.17.09-.14a8.37,8.37,0,0,1-.48-.79,1.12,1.12,0,0,1-.06-.32s.1,0,0-.19a1.22,1.22,0,0,1-.17-.58c0-.18-.06-.3,0-.4s-.37-.15.1-.1l.45,0,.27.21.3.19.14-.19L20.21,65l-.46-.27h-.34l-.32-.14-.65-.11-.36-.19L18,63.87l0-.22-.22-.28-.2-.14-.19.33-.23.2-.34.34-.1.29L16.3,65l.23.64a1,1,0,0,0,.26.26.91.91,0,0,1,.28.35l0,.44Z"/><path class="cls-1" d="M23.85,65.3a.78.78,0,0,0,.12-.68,4.73,4.73,0,0,0-.16-.46l-.5.13,0-.59-.1-.17-.28.31a1.12,1.12,0,0,0-.08.53c.05.14-.15.08.17.62a2.08,2.08,0,0,0,.79.77l-.06-.14-.16-.32.14-.1S23.7,65.43,23.85,65.3Z"/><path class="cls-1" d="M24.22,68.13a5.1,5.1,0,0,0,.77.32s.32.27.4.12.31,0,.05-.26-.11-.12-.47-.27l-.81-.33L24,67.59l-.3.06A1.26,1.26,0,0,0,24.22,68.13Z"/><path class="cls-1" d="M21.88,67.4a.6.6,0,0,0,.31.26,1.29,1.29,0,0,0,.37.07l.13-.14-.1-.21-.66-.1Z"/><path class="cls-1" d="M20.86,65.93c.16.18.21.06.21.06h.25l-.11-.21-.31-.1S20.71,65.75,20.86,65.93Z"/><path class="cls-1" d="M22.8,66.55a.46.46,0,0,0-.11-.21l-.46-.18-.15,0s-.36-.1-.2.08a3.24,3.24,0,0,0,.78.45S22.86,66.7,22.8,66.55Z"/><path class="cls-1" d="M24,66.62l-.41-.17-.24,0a1.5,1.5,0,0,0,.51.33c.25.08.36.29.3,0S24,66.62,24,66.62Z"/><path class="cls-1" d="M25.55,67.45l-.31-.32L24.83,67h-.2s-.09,0,.21.24a1.84,1.84,0,0,0,.36.23Z"/><path class="cls-1" d="M39.17,77.61c-.44-.66-.43-.44-.66-1.18s-.39-.83-.39-.83-.23-.74-.35-1a1.87,1.87,0,0,0-.48-.82,14.26,14.26,0,0,1-1.11-1.27L36,72.05a6.37,6.37,0,0,0-.84-.65,1.09,1.09,0,0,1-.56-.34,1.84,1.84,0,0,0-.31-.32l-.89-.63L32.45,70,32,69.73l-.72-.54-.57-.33-.5.07L30,69l-.25.25-.39.1-.22-.06-.42-.48,0-.15-.16-.15L28.19,68l.08-.47-.21-.24a1.59,1.59,0,0,0-.37-.28c-.2-.11-.46-.28-.46-.28l-.56-.16-.13.19-.21-.07-.2-.06-.26.16.33.58.28.3L27,68l.06.16-.44,0s-.11,0,0,.25.33.5.33.5a1.82,1.82,0,0,0,.53.37l.4.12c.42.44.59.81.84.92s.42.3.62.37.16,0,.47.27.52.51.52.51l.42.49.31,1.25a1.4,1.4,0,0,0,.13.58,9,9,0,0,0,1.29.92,1.46,1.46,0,0,0,.74.7c.51.2.86.31.86.31l.41-.11.38-.47.76-.08.7.28L37,76s-.24.38,0,.57.37.61.53.75a1.8,1.8,0,0,0,.62.31c.16,0,0,0,.36.2s.88.66,1.08.82.42.25.32,0S39.59,78.27,39.17,77.61Z"/><path class="cls-1" d="M40.92,74.05l-.29.24-.3.13L39.61,74l-.09.1s-.06-.1-.41,0a.85.85,0,0,0-.43.26,4.19,4.19,0,0,0,.67.65,2.06,2.06,0,0,0,.86.08A4.81,4.81,0,0,0,41,75a1.47,1.47,0,0,0,.38-.33c.1-.16.2,0,.09-.39a1.72,1.72,0,0,0-.38-.59Z"/><path class="cls-1" d="M42.22,73.81s.09,0-.17-.4a2.66,2.66,0,0,0-.43-.53l-.57-.49-.56-.3s-.36-.1-.2.12a7.6,7.6,0,0,0,.89.9,5.19,5.19,0,0,1,.41.44l.12.38Z"/><path class="cls-1" d="M42.85,75.57a1.06,1.06,0,0,0,.27.61,2.88,2.88,0,0,0,.93.46l0-.21-.8-1.05Z"/><path class="cls-1" d="M44.66,76.83l.17.58.27.21a.28.28,0,0,0,.08-.28,1.43,1.43,0,0,0-.26-.35Z"/><path class="cls-1" d="M46.42,78,46,77.74s-.2,0-.15.13a3.53,3.53,0,0,0,.47.69c.18.18.49.4.37.15A4.65,4.65,0,0,1,46.42,78Z"/><path class="cls-1" d="M47.42,79.21c0,.16-.56-.21-.07.51s.48.55.48.55l.08-.21-.29-.88S47.47,79,47.42,79.21Z"/><path class="cls-1" d="M47.6,81.05c.15.09.42.22.42.22l.06,0-.59-.54S47.45,81,47.6,81.05Z"/><polygon class="cls-1" points="48.17 81.22 48.08 81.24 48.22 81.36 48.17 81.22"/><path class="cls-1" d="M7.47,62.1c-.09-.16-.41-.25-.41-.25l-.24.06.11.44.32.27a6.42,6.42,0,0,0,.62.54c.32.23.31,0,.31,0L8.07,63Z"/><path class="cls-1" d="M9.74,67.12s-.09.06-.25-.07a2.55,2.55,0,0,1-.39-.45,1,1,0,0,0-.37-.23c-.21-.05-.94-.29-.94-.29l-.37-.15-.32,0s-.33.26-.55.2-1.26-.55-.4,0,.91.59,1.07.67a1.93,1.93,0,0,0,.42.21c.32.12.32.17.64.29s.63.3.63.3a4.41,4.41,0,0,0,.58.19l.41.12a2.9,2.9,0,0,1,.64.3c.16.12.85.58.85.58l.42.24.34.21.24-.1a1.2,1.2,0,0,0-.18-.41A5.54,5.54,0,0,1,11.8,68l-.65-.65a3.36,3.36,0,0,0-.41-.16C10.53,67.16,9.74,67.12,9.74,67.12Z"/><polygon class="cls-1" points="12.6 69.24 13.3 69.68 13.66 69.68 13.38 69.21 13.01 69.07 12.6 69.24"/><path class="cls-1" d="M14.26,69.67l-.08.11a6.39,6.39,0,0,0,.63.39l.33.08L15,69.8l-.31,0Z"/><path class="cls-1" d="M16.38,70.39a1.73,1.73,0,0,0-.28-.29l-.35.13-.52-.09a.46.46,0,0,0,.23.37l.47.21.43.11A.35.35,0,0,0,16.38,70.39Z"/><path class="cls-1" d="M17.88,72.24l-.13-.43-.55-.71-.67.09s.27.29.55.54A4.84,4.84,0,0,0,17.88,72.24Z"/><path class="cls-1" d="M17.65,71.14c.37.18.64.29.64.29l.56,0a.52.52,0,0,0,.34-.12l.26-.06.24-.11-.26-.29a3.35,3.35,0,0,0-.58-.11,5.1,5.1,0,0,0-.72,0,3.86,3.86,0,0,1-.72-.15,1.74,1.74,0,0,0-.52-.07A3.12,3.12,0,0,0,17.65,71.14Z"/><path class="cls-1" d="M20.54,73a4.44,4.44,0,0,1,.66-.14,4,4,0,0,0,.76-.27l.49-.27.44-.41a1.21,1.21,0,0,0-.52,0c-.34.07-.41-.16-1.23-.16s-.26.07-.67,0-.3,0-.3,0l-.21.73.22.18Z"/><path class="cls-1" d="M20.41,71l.49.42.21-.08-.18-.3A3.11,3.11,0,0,0,20.41,71Z"/><path class="cls-1" d="M50.7,7.73s.06-.16-.29-.39-.12,0-.32-.39-.23-.28-.64-.35-.23,0-.23,0l-.35-.13c-.23-.09,0-.37,0-.37l-.31-.48a3.49,3.49,0,0,0-.47-.28L47.25,5c-.64-.25-.35-.22-.75-.39a3.31,3.31,0,0,1-.84-.5l-.29-.21-.25-.18a7.54,7.54,0,0,0-.94-.56,3,3,0,0,0-1,0l-.14.58,0,.34-.39.11-.24-.27L42,3.56a.48.48,0,0,0-.09-.39,16.33,16.33,0,0,0-2.25-.43l-.24-.1L39,2.48l-.24-.09-.13-.32-.28.07-.13-.23,0-.3A49.64,49.64,0,0,0,.58,49.77c0,.48,0,1,0,1.45l.83-.38,1-.7.6-.85.82-1.13L4.4,47.1l0-.44-.18-.35-.08-.48-.13-.22-.13-.33.33-.61s0-.52.09-.78.1-.23.1-.23L5,43l.62-.48L6,42l.4-.21L7,41.47l.57,0,.14.32L7.49,42l-.1.24.11.14a.86.86,0,0,0,.47,0l.32-.51.28-.16a1.65,1.65,0,0,0,.93,0c.57-.14.35,0,.62,0a1.45,1.45,0,0,0,.46-.19.44.44,0,0,1,.41.08c.19.16,0,.09.19.16s.44-.28.44-.28l.46-.09a4,4,0,0,0,1.24-.6c.23-.28.34,0,.34,0L14,40.5l.57-.23.33-.05s.19,0,.58-.41.15-.3.15-.3L16,39l.5-.45.33-.13.49-.9.33-.51.32-.51s0-.53,0-.81a.23.23,0,0,1,.27-.25l.28-.25.11-.33.09-.59,0-.35.1-.33-.13-.42-.23-.08a10.83,10.83,0,0,1,.29-1.34l.33-.69.21-.19.23-.27.5-.44.45-.09.27-.35a2.48,2.48,0,0,0-.41-.26,2.51,2.51,0,0,0-.75-.11,1.2,1.2,0,0,1-.53-.21L19,28.48s0-.44.09-.78a.24.24,0,0,1,.33-.23l.34-.14.34-.32.23.18.75,0,.13.32-.22.27.29.12s.06,0,.34-.23l.4,0,.14.42.39,0,.51-.25.36.15c.29.1-.16.47-.16.47l-.17.21-.22.18-.26.35v.37l.18.26.18.06.23.18-.11.33-.37.49a1,1,0,0,1-.1.41c-.11.23-.27.62-.27.62l.07.4-.2.54.18.26.4-.3.62,0,.45-.28.1-.33.28-.43.22-.28a3,3,0,0,1-.19-.43c-.07-.22.28-.36.28-.36a4.41,4.41,0,0,0,.14-.57c.05-.26-.24-.28-.24-.28l-.13-.5.09-.51.22-.37a2.52,2.52,0,0,0,.21-.27,3.46,3.46,0,0,1,.5-.44l.73-.63a.9.9,0,0,1,.4-.2.46.46,0,0,0,.51-.17c.23-.27.77-.87.77-.87l.41-.12.47.19.28-.07.72-.45.44-.55.8-.69L31.36,23l.16-.39.54-.69.3.11a13.09,13.09,0,0,1,.29-1.34,1.3,1.3,0,0,0,0-.71,1.23,1.23,0,0,1,.09-.5l.45-.56L33,18.76l-.19-.61.09-.7-.07-.21.2-.73L32.7,16l-.87-.15-.36-.15a.5.5,0,0,0-.24-.28c-.18-.06-.25-.55-.25-.55l.76-1,.56-.69.15-.49,1.17-.8.79-.69a.45.45,0,0,1,.35.13,2.81,2.81,0,0,1,.36.42l.76.11.46.19.33-.32.82-.06.18.35.13.42s.18,0,1.27-.05.34-.13.34-.13l.05-.36s.3-.87.42-1.1.9-.37.9-.37l.23.09.17-.2.28-.26.07.4.23.09L42,10.3l.35-.13.14.68-.32.88-.6.85-.43.65-.11.23-.73.25-.17.3-.37,1a2.09,2.09,0,0,0,.32.67c.18.16.07.29.07.29v.38l.14.32.1,1.13a2.67,2.67,0,0,0,.08.58,1.53,1.53,0,0,1,.09.66,2.11,2.11,0,0,0,.19.81l.07.29h.42l.26-.35.34-.33.37-.85.16-.29-.13-.34.38-.66.26-.44.29-.25a3.74,3.74,0,0,0-.16-.89,2.17,2.17,0,0,1-.13-.58,7.28,7.28,0,0,0-.15-.88,2.28,2.28,0,0,1,.2-.84,4.08,4.08,0,0,1,.19-.82,3.6,3.6,0,0,1,.5-.63l.29-.15v.37l.19.25.44-.38.35.14.3.21,1.23-1.06.28-.07a3.55,3.55,0,0,0,.56-.32c.46-.29.35-.14.35-.14h.69c.24,0,.11-.23.11-.23l-.19-.44L48,9.92l-.13-.32-.07-.3-.18-.25-.2-.62L48,7.94l.29-.16.32-.5.08.39.23.09.18.16.64.34.24.09.36.15.58.22,0-.25L50.66,8Z"/><path class="cls-1" d="M38.08,89.9a2.25,2.25,0,0,0-.51-.58,7.38,7.38,0,0,1-.07-1.14,2.85,2.85,0,0,0,0-.65L37,86.45l-.68-1.09c-.06-.12-.12-.21-.14-.27s-.64-1-.56-1.23a4.31,4.31,0,0,0,.18-.66l-.19-.83s-.32-.54-.38-.69a5,5,0,0,1,0-.82l-.52-.42s-.15.1-.24-.64A7.11,7.11,0,0,0,34,78.23s.22-.65.06-.78-.38-.65-.43-.53-.55,1-.55,1-.2-.07-.24.29a6.15,6.15,0,0,0,.05.95,6.16,6.16,0,0,1-.18.83s.29.58,0,.74-.44.49-.68.64a3.92,3.92,0,0,1-.79.32s-.09.14-.31-.1a7.92,7.92,0,0,0-1-.92,8.51,8.51,0,0,1-1-1c-.1-.16-.44-.8-.44-.8l.27-.81a.8.8,0,0,0-.06-.25c-.05-.15,0-.21.19-.29s.18-.54.18-.54L29,76.62a6.28,6.28,0,0,1-1.12-.42,5.5,5.5,0,0,0-1.19-.71c-.3-.08-1.17-.48-1.17-.48l-.42-.34.94.9.29.66a2.49,2.49,0,0,0-.51-.33c-.16,0-.63-.22-.66-.11s.06.38-.19.36-.81,0-.8.16,0,.31,0,.55a5.41,5.41,0,0,0,.07.64l-.14.14-.2,0-.51-.24-.46.1s-.21-.16-.16-.28a2.78,2.78,0,0,0-.27-.76s-.18-.32-.43-.34a2.54,2.54,0,0,0-.79.17l-.58.54.07.65-.14.14-.35,0-.41-.12s-.58-.47-.47-.22.23.55.23.55l-.49.26-.27-.26-.23-.7-.35,1.07-.13.54s-.49.44-.69.44-1.15-.08-1.31-.14-.85,0-1.05,0a14.62,14.62,0,0,0-1.45.24c-.15.05-1,.7-1.13.61a5.24,5.24,0,0,1-.57-.48s.22-.64-.21,0a3.26,3.26,0,0,0-.4.73l-.13.37-.06.41A49.34,49.34,0,0,0,22.56,91.22a5.06,5.06,0,0,1,.57-.09A7.2,7.2,0,0,0,25,90.4a1.79,1.79,0,0,1,.74.08s1.23.21,1.6.21a3.86,3.86,0,0,1,1.34.71c.3.23.17.44.17.44l.25.29,1,1,.77.86.55.36-.09.73.4.5.9.65.35.14.88-.72h.58a2.19,2.19,0,0,0,.65.21,3,3,0,0,0,.8-.35l.62-.66,1.17-1.29s.49-2.88.47-3.17A2.62,2.62,0,0,0,38.08,89.9Z"/><path class="cls-1" d="M6.39,63.43a4,4,0,0,1-.45-.77l-.36-.81-.49-.75-.45-.83s.29.15,0-.16-.52-.26-.67-.77.34,0-.18-.55-.88-.93-1-1.11-.27-.41-.27-.41l-.31-.42c-.12-.14-.77-.64-.77-.64a4.51,4.51,0,0,1-.33-.51,2.54,2.54,0,0,0-.28-.48c.06.73.15,1.45.24,2.18a.86.86,0,0,0,.07.1l.27.31a4.42,4.42,0,0,1,.36.8A2.89,2.89,0,0,0,2,59.83c.22.34.79,1,.92,1.16a5.84,5.84,0,0,1,.31.56l.63,1.07a4.33,4.33,0,0,0,.71.83c.3.25.46.08.6.44s0,.41.28.59a9.44,9.44,0,0,1,.77.63l.34,0-.27-.54A1,1,0,0,0,6.39,63.43Z"/><path class="cls-1" d="M99.51,52l-.76.7-.49.41H97l-1.51-.36L95,51.92l-.17-.83-.4-.68.7-.55.12-1.58.32-.43-.45-.54s.49-.42,0-.47l-.95-.12-1.09-.15-.38-1.15.45-.74.82-.85.13-.78-.62-.55-1.18-.32-.49.42-.86.53.47,0-.33.45-.92.67L89,43.85l-.07-1.13-.29-.51L87.94,42l-.19-.81.44-.74.19-.46a17.6,17.6,0,0,1,0-2.22l.46-1.21,1.56-.61,1.21-.16,1.64-.43a7,7,0,0,1,1.52.35c.41.21,1.38.65,1.38.65l.4.68.37,1.16.38,1.17a.39.39,0,0,0,.57-.25,5.58,5.58,0,0,0,.23-1.4l-.64-1.35.15-.72A49.79,49.79,0,0,0,74.8,6.75l-1,.49S73,6,72.51,6A7.34,7.34,0,0,0,71,6.1l.08.64s.78.57.15.49.19.35-.73-.24a4.07,4.07,0,0,0-1.56-.68l-1.52.6-.49-.06-1,.19-2-.41-.63-.07s-.39-.69-.86-.75l-1.1-.14s-.1-.17-1.25-.15a7.22,7.22,0,0,1-2-.27L57.43,5l-.72-.26-1.08-.61-.9.2L53.34,5l-.54.58.08.64-.18.45-1.21.17-.18.45.42.21.41.21.57.24.23.66-.82.85.08.65.63.08,1.45.5.56.23-.13.78-.58.24-.75.23-.74.23-.86.53a5.3,5.3,0,0,0,1.73.21s-.42-.21.32-.44a12.94,12.94,0,0,0,1.33-.47l.68-.07,1-1s-.31,0,.68-.07-.91-.61,1.75-.27,1.63.05,2.81.37a19.12,19.12,0,0,1,1.92.55l.92.59,1.21.31,1,.45,2.08,1.84,1.16,1.26,1.43,1,.13.49.4.68.54.71-.17.46.13,1,1.06-.19.65.88-.19.46.09.65.38,1.15a6.27,6.27,0,0,0,.06,1.13c.08.65,0,3,.12,3.52a12.48,12.48,0,0,0,.65,2.15,2.14,2.14,0,0,1,.34.83l.52.38.4.22,1,2.19.78,1.85.22,1.13.3.52a3.48,3.48,0,0,1,.23.67,4.72,4.72,0,0,0,.69,1.19l.72.26,0-.8-.57-1-.44-1L79.4,36l0-1,.4.21.55.7.83,1.7.9,1.54.23.66.39.69-.33,1.71.77.57.55.7,1.11.95.8,1.37.66.4.94.12.63.08.93.11s-.11.3.34.84a7.26,7.26,0,0,1,.56.71l.64.87,1,.12.4.21.92.6.14.49,0,1L93,52l.24.66s-.27.29.23.68-.26.27.77.56a12.24,12.24,0,0,0,1.51.35l.88.27.53-.09,0,.81-.76,2-.19.93-1.92.72-.46.74-.54.56-.78,1.18-1.32,1.74L91,65.58l.08,1.92a6.34,6.34,0,0,0-.3,2l-.71,2.29.1,1.45,1,1.4.24.66-.59,1.53-.61,1.19L88,80.33l-.18.46-.76.71-.92.68a12.59,12.59,0,0,0-1.09,1.13,3.18,3.18,0,0,0-.44.75l-3,3.12-1.18,1-.6.71-.67.88-1.49.45a4.6,4.6,0,0,1-1.08,1.12l-.64.4-.77.9A49.7,49.7,0,0,0,99.64,52Z"/><path class="cls-1" d="M66.68,30.77h0Zm-.11-.09h0Zm-.12-.07,0,0Zm-.12-.07s0,0,0,0S66.32,30.54,66.33,30.54ZM33,42.74s0,.1,0,.16S33,42.79,33,42.74Zm0-.87c0-.06,0-.12,0-.17S33,41.81,33,41.87Zm.13-10.11v0Zm32.71-1.37a.13.13,0,0,1,.08,0A.13.13,0,0,0,65.84,30.39Zm-.23,0h0Zm.59.11h0Zm-.14,0-.07,0Zm1.08,1.16s0,.09,0,.14S67.14,31.65,67.14,31.6Z"/><path class="cls-1" d="M64.35,36.92a1.28,1.28,0,0,0,1.31-1.25V31.83a1.27,1.27,0,0,0-1.31-1.25H51.42V28.47a1.33,1.33,0,0,0-2.65,0v2.11H36a1.29,1.29,0,0,0-1.33,1.25v3.84a1.32,1.32,0,0,0,2.64,0V33.08H48.77v3L35.38,41a1.24,1.24,0,0,0-.75,1.62,1.35,1.35,0,0,0,1.71.72l13.75-5.15,13.76,5.15a1.33,1.33,0,0,0,1.7-.72A1.23,1.23,0,0,0,64.81,41L51.42,36v-3H63v2.59A1.29,1.29,0,0,0,64.35,36.92Z"/><path class="cls-1" d="M41,47.89a1.25,1.25,0,1,0,0-2.5h-5a1.28,1.28,0,0,0-1.31,1.24v8.54a1.29,1.29,0,0,0,1.31,1.26h4.94a1.26,1.26,0,1,0,0-2.51H37.25V52.28h3.63a1.26,1.26,0,1,0,0-2.51H37.25V47.89Z"/><path class="cls-1" d="M59.31,53.92a1.26,1.26,0,1,0,0,2.51h4.93a1.29,1.29,0,0,0,1.32-1.26V46.63a1.28,1.28,0,0,0-1.32-1.24h-5a1.25,1.25,0,1,0,0,2.5h3.7v1.88H59.31a1.26,1.26,0,1,0,0,2.51h3.62v1.64Z"/><path class="cls-1" d="M46.15,50.64a1.07,1.07,0,0,0,.37,1.18l1.75,1.38-1.7,1.32a1.06,1.06,0,0,0-.15,1.54,1.18,1.18,0,0,0,1.62.15l2-1.6,2,1.6a1.17,1.17,0,0,0,1.61-.15,1,1,0,0,0-.15-1.54L51.89,53.2l1.75-1.38A1,1,0,0,0,54,50.64a1.11,1.11,0,0,0-.42-.75l-1.69-1.33,1.75-1.36a1.08,1.08,0,0,0,.16-1.55,1.21,1.21,0,0,0-1.64-.14l-2.08,1.63L48,45.51a1.17,1.17,0,0,0-1.61.14,1.06,1.06,0,0,0,.15,1.55l1.75,1.36-1.7,1.33A1.11,1.11,0,0,0,46.15,50.64Zm5.19.23-1.29,1-1.25-1,1.28-1Z"/><path class="cls-1" d="M64.26,58.55H35.91A1.28,1.28,0,0,0,34.6,59.8V70.52a1.32,1.32,0,0,0,2.63,0V61.06H62.94v9.46a1.32,1.32,0,0,0,2.63,0V59.8A1.27,1.27,0,0,0,64.26,58.55Z"/><path class="cls-1" d="M58.25,70.75h-7v-2.1h6.91a1.28,1.28,0,0,0,1.31-1.25V63.71a1.28,1.28,0,0,0-1.31-1.25H42a1.29,1.29,0,0,0-1.32,1.25V67.4A1.29,1.29,0,0,0,42,68.65h6.66v2.1H41.93a1.26,1.26,0,1,0,0,2.52h6.69v1.66a1.32,1.32,0,0,0,2.63,0V73.27h7a1.26,1.26,0,1,0,0-2.52Zm-15-4.44v-1.5H56.84v1.5Z"/><path class="cls-1" d="M33.54,24.17,33,23.92l-.3.65-.14.5-.25.94-.39,0-.21.14-.64,1.16,0,.74,0,.44-.69,1.79-.34.5-.42.39-.13.1-.11-.25-.4-.24s-.79.64-.84.85-.14.49-.14.49l-.26.2-.49.2-.88-.1-1.25.39-.59.6-.46.24-.19.3-.54.25-.56.45-.08.79.19.15-.16.4-.29.54.1.45.05.44.14.36L23,38s.51.1.55,0,.49-.89.49-.89l.46-1,.15-.24.33-.15.28-.07.57-.13s0-.1.15-.1a5.74,5.74,0,0,0,.65-.1l.14-.2.45.15a.55.55,0,0,0,.54-.15c.3-.25.64-.9.8-.9h1.24a.58.58,0,0,0,.54-.09l.45-.45.7-.84a3,3,0,0,1,.05-.59c0-.15.45-.95.45-.95a2.49,2.49,0,0,0,.54-.69,7.82,7.82,0,0,0,.24-1.79l.51-.39.59-.35.55-.34.84-.45a6.69,6.69,0,0,1,.64-.7,5.53,5.53,0,0,0,.55-.45,5.08,5.08,0,0,0,.59-.59l.1-.44-.64-.31-.31.16-.43.34-.45.4-.83.2-.22-.2-.39-.7Z"/><polygon class="cls-1" points="23.4 37.55 23.46 37.54 23.66 37.14 23.63 37.13 23.49 37.26 23.4 37.55"/><polygon class="cls-1" points="23.03 37.56 23.01 37.68 23.13 37.69 23.2 37.57 23.14 37.47 23.03 37.56"/><polygon class="cls-1" points="35.34 25.87 35.28 26.02 34.93 26.29 35.02 26.48 35.06 26.32 35.13 26.33 35.16 26.24 35.21 26.24 35.26 26.11 35.61 25.93 35.38 25.84 35.34 25.87"/><polygon class="cls-1" points="36.74 25.27 36.78 25.09 36.49 25.27 36.34 25.13 36.23 25.42 36.12 25.4 36.07 25.53 35.96 25.66 35.89 25.66 35.94 25.75 35.82 25.79 35.75 25.92 35.82 25.98 36.16 25.63 36.2 25.52 36.3 25.54 36.53 25.32 36.74 25.27"/><path class="cls-1" d="M24.32,34.37l-.09-.19h-.16l-.14.15-.08.08h-.08l-.19.11-.06,0-.12.06-.15,0s-.08,0,0,.18a1.43,1.43,0,0,1,.11.23l0,.07-.1,0-.1-.18v.13l-.06.19v.08l.13,0,.18-.07,0,.1.1,0,.13-.12L23.54,35s.11-.15.15-.06a.67.67,0,0,1,0,.28l-.14.38-.36.48-.05.15,0,.07-.08.21-.14.14,0,.1.11-.08.05.06.11,0,0-.13.07-.19.18-.15.06,0,0,.07-.15.12.06.11v.07l-.12.11-.13.08.15.06.26-.19,0-.13.14,0,.07-.12.46-.78.07-.08.17-.27.17-.13,0-.07a1.09,1.09,0,0,1,0-.17.26.26,0,0,0,0-.13l-.11-.09v-.08l.09-.13,0-.09-.14,0-.08,0Z"/><path class="cls-1" d="M24.75,33.72h-.21l-.11.07-.07.17s-.12.08,0,.11a.45.45,0,0,0,.17,0l.15,0s0-.07.12,0l.16.08.1.06a.75.75,0,0,0,.14-.18c0-.06-.15-.19.1-.23a.65.65,0,0,1,.36,0,1.79,1.79,0,0,0,.47,0l.32-.09.29-.12.15,0a.63.63,0,0,0,.29.08.06.06,0,0,1,.08.06l.17,0-.05.09-.15.1-.18.26,0,.18a.86.86,0,0,0,.11.24.54.54,0,0,0,.11.19c.06.07.05.08.11.06a3.62,3.62,0,0,0,.34-.34s0-.24.12-.33a1,1,0,0,1,.3-.07.3.3,0,0,0,.11,0,.25.25,0,0,0,.13-.1l-.1-.17c0-.06-.17-.18,0-.2a1.6,1.6,0,0,1,.3,0l0,.08s-.12.16,0,.15a.6.6,0,0,1,.19,0,1.82,1.82,0,0,0,.29.08l.14,0h.14l.25-.33.17-.1v.1l-.16.16,0,.17.2-.08.23-.28s-.05-.13,0-.16l.17-.07.09.1,0-.25a.61.61,0,0,1,.17-.11.38.38,0,0,1,.19,0,.1.1,0,0,1-.06.13c-.09,0-.16,0-.18.08a1.75,1.75,0,0,0-.06.28.17.17,0,0,0,.15,0c.08,0,.24-.07.28-.16s0-.26.09-.3l.2-.09,0-.1-.12-.15v-.06L31,32.5l.35-.61s0,.13,0,0,.09-.59.09-.59l.21-.58.22-.11s.08-.14.14-.27a3.36,3.36,0,0,1,.4-.53l0-.51-.2-.51s-.06-.26,0-.33a1.8,1.8,0,0,0,0-.3L32.15,28l-.2.3.13,0,0,.1-.13.05-.11-.05,0-.14-.2-.07v.21l-.1.11-.18.26-.06.31-.69,1.74-.74.74-.72.36-.19-.22s-.05-.16,0-.2.08,0,.15-.09a.65.65,0,0,0,.1-.19s-.14-.09-.22-.05a1.33,1.33,0,0,0-.24.24l0,.37,0,.12-.14.1-.47.49-.06.29-.24.16H27.6l0-.16s0-.09-.06-.07-.42,0-.42,0a4.74,4.74,0,0,1-.49.11,2.87,2.87,0,0,1-.37-.09h-.13L25.6,33l-.61.45Z"/><path class="cls-1" d="M26.54,34l-.23-.06-.15.06-.12.18s0,.14-.08.1l-.2-.07-.11-.08-.32.27-.16.16-.21.08.05.22,0,.39v.19l.27.05.09-.32.34-.26.16-.17.19.12s0,.09.09.05l.25-.17.27-.27.05-.1Z"/><path class="cls-1" d="M32,27.7l-.18.21-.12.07s-.16,0-.12-.12.11-.38.11-.38l-.08-.17a.18.18,0,0,1,0-.17l.12-.24.22-.15c.05,0,.1-.12.14-.15s0-.29,0-.29,0,0,.09,0a1.25,1.25,0,0,1,.31.17l0-.05a10.45,10.45,0,0,0,.48-.95v-.39l0-.29.2-.31.43,1.07.28.36.51.29.35-.32-.13.52.13.13,0,.18.2.05-.29.13-.24.15L34.05,27l-.41.34-.2.46-.25-.21-.45-.42-.07-.1-.26.13s-.09.11-.16,0A1.92,1.92,0,0,1,32.1,27l-.08.06-.1,0v.22l.15.15.08.08.11.18-.08.06Z"/><polygon class="cls-1" points="45.1 95.96 45.72 97.43 43.39 99.4 41.98 99.24 45.1 95.96"/><polygon class="cls-1" points="45.31 95.58 45.78 94.09 45.47 92.62 46.86 94.42 47.02 94.93 47.8 94.93 47.17 95.4 46.25 95.9 45.93 96.38 45.31 95.58"/><path class="cls-1" d="M35.18,96.78s.89-.49,1.39-.2a.81.81,0,0,1,.1,1.3C36.26,98.26,35.18,97.28,35.18,96.78Z"/><path class="cls-1" d="M50,100a50,50,0,0,0,50-50A50,50,0,0,0,14.63,14.64,50,50,0,0,0,50,100ZM.73,50A49.26,49.26,0,0,1,84.81,15.15,49.27,49.27,0,1,1,.73,50Z"/></g></g></svg>