<svg xmlns="http://www.w3.org/2000/svg" viewBox="0 0 504.86 100"><defs><style>.cls-1{fill:#e25e9d;}.cls-2{fill:#aacc03;}.cls-3{fill:#3db8eb;}.cls-4{fill:#231815;}</style></defs><title>logo-kit</title><g id="レイヤー_2" data-name="レイヤー 2"><g id="レイヤー_1-2" data-name="レイヤー 1"><polygon class="cls-1" points="54.62 49.98 88.62 21.45 88.62 0 31.16 48.22 31.52 52.06 88.62 100 88.62 78.54 54.62 49.98"/><polygon class="cls-2" points="17.32 99.07 30.23 99.07 47.64 34.35 31 34.35 23.82 61.14 16.64 34.35 0 34.35 17.32 99.07"/><polygon class="cls-3" points="30.33 0.98 17.42 0.98 0 65.66 16.64 65.66 23.82 38.87 31 65.66 47.64 65.66 30.33 0.98"/><polygon class="cls-4" points="288.09 91.77 311.22 91.77 311.22 97.51 258.74 97.51 258.74 91.77 281.7 91.77 281.7 57.66 260.33 57.66 260.33 51.85 309.57 51.85 309.57 57.66 288.09 57.66 288.09 91.77"/><polygon class="cls-4" points="148.41 19.2 145.79 19.2 145.39 19.2 145.39 16.38 142.99 16.38 142.99 19.2 141.45 19.2 141.45 15.12 144.44 15.12 145 15.12 146.94 15.12 146.94 12.71 141.45 12.71 141.45 9.33 148.09 9.33 148.09 6.88 132.31 6.88 132.31 9.33 138.38 9.33 138.38 12.71 133.29 12.71 133.29 15.12 138.38 15.12 138.38 19.2 131.95 19.2 131.95 21.71 148.41 21.71 148.41 19.2"/><path class="cls-4" d="M127.52,1.16V27.44h22.09v0h3.07V1.16H127.52m22.09,23.46h-19V3.85h19Z"/><path class="cls-4" d="M304.91,19a12.58,12.58,0,0,1-2.24-3.09A16.44,16.44,0,0,1,301,11.3c-.73-3.42-.38-7-.38-10.43h-3.15v6a25.91,25.91,0,0,1-.36,4.49c-1.61,8.79-6.58,11.21-10.17,12.36v3.75c2.1-1,9-3.52,12.14-11.29,2.48,6.18,9.17,9.86,12.25,11.29h0v-4A44.37,44.37,0,0,1,304.91,19Z"/><path class="cls-4" d="M419.26,67h21V61.11H419c.05-1.43.05-1.83.05-3.43V46.1H412.8V58c0,1.6,0,2-.05,3.08H391.38V67h20.68c-3.18,17.65-13.5,22.51-20.7,24.79v7.51c4.21-2.06,18.36-7,24.65-22.61,5,12.38,18,19.74,24.22,22.61h0v-8C430.46,86.64,423.33,82.2,419.26,67Z"/><path class="cls-4" d="M206.55,11.27H217V8.32H206.43c0-.73,0-.93,0-1.73V.79h-3.15v6c0,.81,0,1,0,1.56H192.56v2.95H203c-1.62,8.83-6.79,11.25-10.41,12.39v3.77c2.13-1,9.22-3.53,12.38-11.31,2.5,6.18,9,9.87,12.12,11.31h0v-4C212.14,21.07,208.58,18.86,206.55,11.27Z"/><path class="cls-4" d="M236.92,46.1V68.44H225.17V46.12l-5.92,0V68.44h-10c0-.56,0-22.3,0-22.3h-6v22.3h-8.84v5.92h8.72a27.15,27.15,0,0,1-1.61,7.35c-1.48,3.76-4.2,6.68-7.09,9.42v8.14s2.31-1.94,3.41-3c4.27-3.95,8.53-7.7,10.14-13.51a36.8,36.8,0,0,0,1.19-8.45h10.12V99.15h5.92V74.36h11.75V99H243V46.1Z"/><path class="cls-4" d="M184.93,9.61v-3H174.31V.8H171V6.63H160.29v3h4.18V24.43h-4.18v3h24.64v-3h-4.12V9.61h4.12m-7.42,14.82h-9.74V9.61h9.74Z"/><path class="cls-4" d="M504.86,83.26v-5.1H483.2l-.17-.11s12.05-7.58,11.89-7.58v-5h-30v5h20l-7.73,4.63v3.06H455.11v5.1h22.13v9a1.67,1.67,0,0,1-1.62,1.59h-5.16V99h11.05a1.72,1.72,0,0,0,1.67-1.72s0,0,0,0v-14Z"/><polygon class="cls-4" points="460.77 61.26 499.05 61.26 499.05 70.59 504.82 70.59 504.82 56.45 494.63 56.45 497.79 46.45 492.08 46.45 488.67 56.45 486.8 56.45 479.82 56.45 479.82 46.43 474.13 46.43 474.13 56.45 470.15 56.45 470.15 46.43 464.45 46.43 464.45 56.45 464.25 56.45 455.09 56.45 455.09 70.59 460.77 70.59 460.77 61.26"/><path class="cls-4" d="M248.9,19.59V17H238.09L238,17s6-3.77,5.94-3.77V10.7H229v2.51h10l-3.86,2.3V17H224.05v2.55h11.06v4.48a.85.85,0,0,1-.81.8h-2.58v2.57h5.52a.86.86,0,0,0,.84-.87h0v-7Z"/><polygon class="cls-4" points="226.87 8.62 246 8.62 246 13.27 248.9 13.27 248.9 6.2 243.81 6.2 245.37 1.21 242.53 1.21 240.83 6.2 239.89 6.2 236.4 6.2 236.4 1.19 233.56 1.19 233.56 6.2 231.57 6.2 231.57 1.19 228.72 1.19 228.72 6.2 228.61 6.2 224.04 6.2 224.04 13.27 226.87 13.27 226.87 8.62"/><polygon class="cls-4" points="278.82 20.25 275.6 20.25 276.74 23.78 277.06 24.74 268.81 24.74 274.04 15.73 279.67 15.73 279.67 12.91 274.04 12.91 274.04 8.34 279.67 8.34 279.67 5.56 274.04 5.56 274.05 1.71 274.05 0.8 270.79 0.8 270.79 5.56 265.14 5.56 265.14 8.34 270.79 8.34 270.79 12.91 265.14 12.91 265.14 15.73 270.5 15.73 265.14 24.74 265.14 27.51 277.96 27.51 278.08 27.51 281.17 27.51 278.82 20.25"/><rect class="cls-4" x="255.93" y="5.56" width="6.19" height="2.78"/><rect class="cls-4" x="255.93" y="12.97" width="6.19" height="2.76"/><polygon class="cls-4" points="255.91 24.45 255.91 28.55 262.18 21.76 262.18 17.55 255.91 24.45"/><path class="cls-4" d="M173.66,84.85v6.2A1.68,1.68,0,0,1,172,92.64h-3.15A1.65,1.65,0,0,1,167.32,91V60.83a1.69,1.69,0,0,0-1.61-1.64h-18.3c0-6.17,0-13.19,0-13.19h-6V59.2H127.27V65H141.4v4.55c0,5.76-.07,12.37-3,17.51a11.45,11.45,0,0,1-5,4.82,15,15,0,0,1-6.13,1v5.81a40.28,40.28,0,0,0,4.56-.35,15.41,15.41,0,0,0,4.55-1.5,19.08,19.08,0,0,0,7.25-7.18,22.82,22.82,0,0,0,2.5-5.7,36.25,36.25,0,0,0,1.19-8.44l.08-5.92V65h12.26a1.79,1.79,0,0,1,1.69,1.72v30.2a1.71,1.71,0,0,0,1.72,1.69h14.39a1.72,1.72,0,0,0,1.73-1.69V84.85Z"/><path class="cls-4" d="M356.31,83.3h20.17V78.65H353.2V75.83h16.17V71.45H353.2V68.7h19.69V64.1H361.63V58.88h14.8V54.23H367.3L370,46.12h-5.4l-2.75,8.11H358.3V46.15h-5.45v8.08H348V46.15h-5.45v8.08H339l-2.75-8.11h-5.41l2.72,8.11h-9.13v4.65h14.83V64.1H328v4.6h19.71v2.75H331.5v4.38h16.18v2.82h-23.3V83.3h20.2c-3.52,3.18-12.41,7-20.72,10V99c4.84-1.81,18.38-7,23.82-12.63V99h5.52V86.41C358.66,92,372.17,97.23,377,99V93.33c-8.29-3.06-17.16-6.85-20.69-10M344.73,64.1V58.88h11.45V64.1Z"/></g></g></svg>