<svg xmlns="http://www.w3.org/2000/svg" viewBox="0 0 364.25 100"><defs><style>.cls-1{fill:#29275e;}.cls-2{fill:#fccf00;}</style></defs><title>logo-kumamoto</title><g id="レイヤー_2" data-name="レイヤー 2"><g id="レイヤー_1-2" data-name="レイヤー 1"><polygon class="cls-1" points="34.19 0 0 48.86 34.19 97.7 66.77 97.7 32.56 48.86 66.77 0 34.19 0"/><polygon class="cls-2" points="66.77 0 83.04 0 48.85 48.86 83.04 97.7 66.77 97.7 32.56 48.86 66.77 0"/><path class="cls-1" d="M137.73,21c-1.22-1.46-3.8-4.22-5-5.48l4.44-2.12a52.47,52.47,0,0,1,8.51,10.68l-4.82,2.34a20.55,20.55,0,0,0-1.57-3.17c-7.9.48-15.91.91-21.08,1.21a1.41,1.41,0,0,1-1,.84l-1.62-3.66c1.5,0,3.49-.06,5.37-.12A45.56,45.56,0,0,0,124.33,11l6.83,1.92c-.18.43-.66.66-1.43.66-.91,1.87-2.24,5.58-3.58,7.76ZM128.15,56.8a25.69,25.69,0,0,1-6.57,10.91l-5.3-2.36c2.82-2.17,5.06-5.89,6.38-9.88Zm14-29.11V48c0,4.54-2.48,5.08-11.33,5.08-.24-1.32-1-1.73-1.51-2.94,1.32.06,2.58.06,3.68.06,2.89,0,3.2,0,3.2-1V44.21H124.43v9.15h-6.08V27.69Zm-6,2.42H124.43v4.7h11.75Zm-11.75,11.8h11.75V37.1H124.43Zm10.29,25.25a54.26,54.26,0,0,0-.68-9.91l5.24-.42a48.8,48.8,0,0,1,1.05,9.66Zm14.47.06a60,60,0,0,0-2.89-9.82l5.36-1a57.53,57.53,0,0,1,3.14,9.51Zm14.59-38.08c2,0,2.41-2.74,2.66-7.2a12.34,12.34,0,0,0,4.75,1.88c-.6,6.27-2.17,7.9-6.86,7.9h-9.59c-6.21,0-7.78-1.4-7.78-6.57V11.33l7.38.42c-.07.48-.43.78-1.39,1v6.45a78.86,78.86,0,0,0,12.2-4.79l3.2,2.94c-.23.19-.7-.06-1.5-.06A87.06,87.06,0,0,1,153,21.6v5.55c0,1.69.49,2,3,2ZM153,48.44c0,1.67.49,2,3.06,2h8.13c2,0,2.43-2.49,2.66-7a17.67,17.67,0,0,0,4.83,1.92c-.61,6.39-2.17,7.74-7,7.74h-9.77c-6.33,0-7.9-1.16-7.9-6.41V32.5l7.38.42c-.07.48-.43.85-1.39.95v6.24a71.19,71.19,0,0,0,12.83-4.89L168.6,38c-.19.16-.41,0-1.39,0A84.53,84.53,0,0,1,153,42.59Zm12.76,19.21a48.1,48.1,0,0,0-6.89-10.27l5.31-1.87a50.41,50.41,0,0,1,7.3,10Z"/><path class="cls-1" d="M232.61,29.68h-21.1c4.94,9.9,13.64,18.94,22.84,23.66a18,18,0,0,0-3.73,4.23A60.18,60.18,0,0,1,208.86,35V51.76h11v3h-11V67.52h-6V54.71H191.55v-3h11.28V35a58.74,58.74,0,0,1-21.65,22.73,22.83,22.83,0,0,0-3.73-3.94A53.92,53.92,0,0,0,200,29.68H179.26V26.74h23.57V11.09l7.48.49c-.08.48-.49.85-1.45,1V26.74h23.75Z"/><path class="cls-1" d="M294.15,32.64H271c3.74,13.37,11.33,25.3,24,29.71a20.52,20.52,0,0,0-3.62,5C280,62.75,271.68,52.18,267.39,39.67a42.91,42.91,0,0,1-24.07,27.64,17,17,0,0,0-4-4.67c15.32-6.21,21.92-18.43,24.15-30H240.37v-3h23.48c.78-5.78.25-13.22.15-18.59l7.72.49c-.06.6-.53,1-1.49,1.14-.08,4.76-.08,11.59-.62,17h24.54Z"/><path class="cls-1" d="M355.51,49v2.78H331.4v9.43c0,6-3.26,6.52-15,6.52-.42-1.63-1.49-1.37-2.41-2.9,2.59.13,5.06.13,7,.13,4,0,4.35,0,4.35-1.25V51.76H301.48V49h24l-.13-7.5,3.37.18a49.94,49.94,0,0,0,9.63-6.36H311.93V32.6l30.73,0,1-.23L346.11,34a2,2,0,0,1-1.14.66,62.71,62.71,0,0,1-13.57,9.9V49ZM308.79,25V35.15h-6V22.26h9.59A67.88,67.88,0,0,0,306.63,14l4.87-2.22a46.42,46.42,0,0,1,6.42,9.73l-2.2.78h11.4a56.8,56.8,0,0,0-5-9.61l5-1.86a46,46,0,0,1,5.34,10.63l-2.44.84h7.88c2.22-2.82,6-7.86,7.55-10.81,6,2.18,6.33,2.35,6.63,2.52-.23.5-.72.68-1.5.61-1.28,2-4,5.51-5.8,7.68h9.89V35.15h-6V25Z"/><path class="cls-1" d="M120.42,85.71h.06l5.71-7.43h4.31L124.19,86l6.86,9.51h-4.59l-6-8.75h-.06v8.75h-3.66V78.28h3.66Z"/><path class="cls-1" d="M140.35,94a4.19,4.19,0,0,1-3.7,1.83c-1.17,0-3.49-.9-3.91-2.62a7.55,7.55,0,0,1-.25-1.93V83.51h3.59v7.17c0,1.29.37,2.76,2.13,2.76,1.12,0,2.1-1,2.14-2.76V83.51h3.57v9.82c0,.69.07,1.41.14,2.14h-3.57Z"/><path class="cls-1" d="M150.7,84.93h.05a4.16,4.16,0,0,1,3.65-1.77c1.34,0,3.32,1,3.81,2.26a4.59,4.59,0,0,1,4-2.26c1.34,0,3.31,1,3.81,2.26a7.45,7.45,0,0,1,.34,2.86v7.19h-3.55V88.28c0-1.28-.38-2.74-2.15-2.74-1.12,0-2.09,1-2.14,2.74v7.19H155V88.28c0-1.28-.38-2.74-2.13-2.74-1.12,0-2.09,1-2.15,2.74v7.19h-3.58v-12h3.56Z"/><path class="cls-1" d="M176.18,89.84c0,1.42-.06,3.6-2,3.6a1.67,1.67,0,0,1-1.74-1.71C172.41,89.8,175,89.82,176.18,89.84ZM173,86.9a1.61,1.61,0,0,1,1.59-1.72,1.51,1.51,0,0,1,1.62,1.49v1.1a11.18,11.18,0,0,0-4.64.66A4.1,4.1,0,0,0,169,92.2c0,2.34,1.65,3.62,3.89,3.62a3.89,3.89,0,0,0,3.66-1.94h0a13.13,13.13,0,0,0,.12,1.59h3.22a12.14,12.14,0,0,1-.17-1.32v-6.5c0-3.6-2.7-4.49-5.1-4.49a6.89,6.89,0,0,0-3.52.76,3.17,3.17,0,0,0-1.61,3Z"/><path class="cls-1" d="M186.39,84.93h0a4.17,4.17,0,0,1,3.65-1.77c1.34,0,3.32,1,3.82,2.26a4.6,4.6,0,0,1,4-2.26c1.33,0,3.3,1,3.81,2.26a7.45,7.45,0,0,1,.34,2.86v7.19h-3.57V88.28c0-1.28-.37-2.74-2.13-2.74-1.12,0-2.1,1-2.16,2.74v7.19h-3.56V88.28c0-1.28-.38-2.74-2.13-2.74-1.12,0-2.11,1-2.14,2.74v7.19h-3.57v-12h3.55Z"/><path class="cls-1" d="M208.43,89.5c0-1.92.36-4,2.55-4s2.54,2,2.54,4-.35,3.94-2.54,3.94S208.43,91.4,208.43,89.5Zm8.78,0c0-3.77-2.34-6.34-6.23-6.34s-6.23,2.57-6.23,6.34,2.33,6.32,6.23,6.32S217.21,93.24,217.21,89.5Z"/><path class="cls-1" d="M220.67,83.51V81.15l3.56-1.29v3.65h2.7V85.9h-2.7v5.55c0,1.56.24,2,1.47,2,.38,0,.76,0,1.14-.07v2.1a13.41,13.41,0,0,1-2.8.35c-2.78,0-3.37-1.46-3.37-4V85.9h-2.42V83.51Z"/><path class="cls-1" d="M232.23,89.5c0-1.92.36-4,2.54-4s2.54,2,2.54,4-.34,3.94-2.54,3.94S232.23,91.4,232.23,89.5Zm8.77,0c0-3.77-2.33-6.34-6.23-6.34s-6.23,2.57-6.23,6.34,2.33,6.32,6.23,6.32S241,93.24,241,89.5Z"/><path class="cls-1" d="M265.35,78.28V89.05c0,4.56-3.31,6.77-7.46,6.77s-7.45-2.21-7.45-6.77V78.28h3.7v9.34c0,2.89.15,5.54,3.75,5.54s3.75-2.65,3.75-5.54V78.28Z"/><path class="cls-1" d="M272,84.9l0,.07a4.1,4.1,0,0,1,3.66-1.81c1.19,0,3.51.89,3.92,2.62a7.68,7.68,0,0,1,.24,1.91v7.78h-3.55V88.28c0-1.28-.39-2.74-2.14-2.74-1.14,0-2.11,1-2.15,2.74v7.19h-3.57v-12H272Z"/><path class="cls-1" d="M286.53,83.51v12H283v-12Zm.13-5.23v3.07h-3.82V78.28Z"/><path class="cls-1" d="M288.12,83.51h3.79l2.66,8.1h.06l2.73-8.1h3.4l-4.34,12h-3.88Z"/><path class="cls-1" d="M305.49,90.45c0,1.54.21,3,2.06,3a2,2,0,0,0,2.18-1.55h3.21c-.32,3-2.6,3.93-5.39,3.93-4.11,0-5.75-2.32-5.75-6.32,0-3.58,2.1-6.34,5.75-6.34,2.24,0,4.09.76,5.07,2.86a6.17,6.17,0,0,1,.61,2.12,19.74,19.74,0,0,1,.09,2.31Zm4.16-2.39c0-1.31-.37-2.52-2.1-2.52s-2,1.21-2.06,2.52Z"/><path class="cls-1" d="M318.57,83.51l.06,2.18h.06c.74-1.88,2.27-2.37,4.05-2.32v3.16H321.2a2.75,2.75,0,0,0-1.75.89,4.14,4.14,0,0,0-.45,2.12v5.93h-3.56l0-9.57c0-.51-.08-1.51-.12-2.39Z"/><path class="cls-1" d="M330.85,86.72c0-.82-.81-1.18-1.62-1.18-1,0-1.42.28-1.42,1.07,0,1.87,6.82.81,6.82,5.28,0,2.62-3.18,3.93-5.4,3.93-2.78,0-5.19-1.09-5.25-3.83h3.31c.06.92.91,1.45,1.94,1.45S331,93,331,92.11s-1.73-1.36-2.44-1.51c-2.28-.57-4.39-1.06-4.39-3.85,0-2.5,3-3.59,5.1-3.59,2.52,0,4.68.91,4.84,3.56Z"/><path class="cls-1" d="M340.27,83.51v12h-3.56v-12Zm.1-5.23v3.07H336.6V78.28Z"/><path class="cls-1" d="M344.46,83.51V81.15L348,79.86v3.65h2.68V85.9H348v5.55c0,1.56.24,2,1.47,2,.37,0,.75,0,1.14-.07v2.1a13.32,13.32,0,0,1-2.8.35c-2.78,0-3.39-1.46-3.39-4V85.9h-2.39V83.51Z"/><path class="cls-1" d="M360.76,83.51h3.49l-6,16.49h-3.52l1.51-4.51-4.62-12h3.81L358,91.78h.07Z"/></g></g></svg>