<svg xmlns="http://www.w3.org/2000/svg" viewBox="0 0 523.64 100"><defs><style>.cls-1{fill:#1a1b1b;}.cls-2{fill:#c83337;}.cls-3{fill:#5398c9;}.cls-4{fill:#57a04a;}</style></defs><title>logo-hiroshima</title><g id="レイヤー_2" data-name="レイヤー 2"><g id="レイヤー_1-2" data-name="レイヤー 1"><path class="cls-1" d="M158.56,39.16a92.47,92.47,0,0,1,14.89,22.47l-4.53,2.77a48.17,48.17,0,0,0-3.33-9.08c-9.63,2.64-14,3.46-32.15,7-.44.75-.72,1.25-1.36,1.25-.41,0-.58-.32-.7-.67l-1.16-3.66a34.55,34.55,0,0,0,6.32-.59c1.73-3.49,10.9-26.65,11.12-34.88l5.32,1.7c.42.12.59.24.59.48s-.19.67-1.17,2c-.73,1.86-3.73,10.22-4.34,11.87a194.75,194.75,0,0,1-8.2,18.33c19-3.13,19.88-3.31,24.87-4.57a76.61,76.61,0,0,0-8.3-12.78Zm15.3-19.77v2.09H131.38V40.83c0,11.35-3.52,18.18-9,23.57l-2.3-1.54c4.18-4.59,6.66-9.1,6.66-20.81V19.41h19.07V14.69a12,12,0,0,0-.17-2.28l4.7.17c.64,0,.87.16.87.5a3.62,3.62,0,0,1-.46,1.29v5h23.11"/><path class="cls-1" d="M231.58,27.49H203.3v5.18h28.28Zm-28.25-2.06h28.25V20.24H203.33v5.19m18.78,35.18v-5a13.12,13.12,0,0,0-.42-3.06l4.43.25c.68,0,.92.18.92.52a5.63,5.63,0,0,1-.57,1.38v8H197v2.24h-4.32V55.58a18.53,18.53,0,0,0-.21-3l3.85.29c.48,0,.93,0,.93.49a2,2,0,0,1-.25,1v6.35H207V49.91h-8.27V18.21H210a24.82,24.82,0,0,0,4.28-6.9l4.49,1.89c.51.25.71.35.71.75,0,.82-.84.82-1.6.77-1.09,1-1.38,1.24-3.79,3.49h21.8v16.5H203.3v5.64h41.12v2.07H203.3v5.45h39.93c-1.59,14-2.85,16.73-10,16.73h-2.9l-1.28-2.52c2.29.25,3,.4,3.9.4,2.07,0,3.88,0,5.48-12.55H211.16V60.64l11,0"/><path class="cls-1" d="M314.67,21.4v2.07H290.61v9.41h18.46V54c0,4.38-.94,5.54-5.8,5.54h-6.52l-1.25-2.6a40.33,40.33,0,0,0,6.06.42c2.73,0,2.86-.35,2.86-2.42V35H290.64v29.8H286V35H272.32V59.49h-4.57V32.88H286V23.47H262.25V21.4H286V16a15.2,15.2,0,0,0-.35-3.37l4.6.21c.78,0,.89,0,.89.4a8.22,8.22,0,0,1-.56,2V21.4Z"/><path class="cls-1" d="M345.05,30.93c4.42,7.56,8.09,18.44,8.76,23.26l-5.09,2.07c-.36-8.84-3.8-20.18-5.87-24.19Zm36.79-8v2H335.18V23H356V15.1a11.36,11.36,0,0,0-.53-3.21l4.83.24c.62,0,.9.1.9.48a5.37,5.37,0,0,1-.44,1.36v9h21.08m2.69,37.26V62.3H332.39V60.21h27.17c3.77-8.34,7-21.6,8.59-31.15l4.92,1.29c.79.25,1,.28,1,.72s-.18.49-1,1.09A222.09,222.09,0,0,1,362.3,60.23h22.23v0"/><path class="cls-1" d="M425.63,16.82a11.91,11.91,0,0,0-.57-4.52l4.89.28c.39,0,1,.05,1,.56a3.88,3.88,0,0,1-.62,1.67V29.14H454v2H430.4c.51,12.59,9.05,26.22,24.24,31.37l-1.88,2.39A42.82,42.82,0,0,1,438,56.18a34.53,34.53,0,0,1-9.85-14.66C421.91,57,410,62.44,403.53,64.76l-1.78-2.1c3.55-1.47,11.08-4.59,17-12.33a33.59,33.59,0,0,0,6.9-19.15H402.26v-2h23.39Z"/><path class="cls-1" d="M516.79,14.81c.41.23.7.46.7.76,0,.11-.1.8-1.6,1.09-5.72,5.78-6.58,6.47-7.58,7.23l-1.59-1.5c2.41-2.82,5-7.75,5.5-10.14Zm-20.59,8.9a52,52,0,0,0-4.82-10.21l2-1.43a53.35,53.35,0,0,1,6.83,8.87l-4,2.77M483.69,24a44.78,44.78,0,0,0-6.4-9.38L478.9,13a38.29,38.29,0,0,1,8.82,7.9l-4,3.12m38.88.21V35.73h-4.48V26.27H477V36h-4.42V24.22h50M495,40.66l5,.51a43.86,43.86,0,0,0,5.9-6.29h-25v-2h32.15v2c-1.27,1-3.43,2.79-6.79,5.21-2.26,1.59-5.65,4-6.63,4.8v1.77h24v2.12h-24V59.9c0,2.83,0,4.82-5.21,4.82h-7.34l-1-2.64a23,23,0,0,0,5.34.58c3.5,0,3.61-.34,3.61-2.54V48.77H471.27V46.65H495v-6"/><path class="cls-1" d="M253,76.14a1.35,1.35,0,0,1,1.81,0,1.19,1.19,0,0,1,.27.92,1.12,1.12,0,0,1-.27.91,1.31,1.31,0,0,1-.9.39A1.34,1.34,0,0,1,253,78a1.18,1.18,0,0,1-.26-.91,1.27,1.27,0,0,1,.26-.92"/><path class="cls-1" d="M368.19,76.14a1.31,1.31,0,0,1,.9-.35,1.4,1.4,0,0,1,.91.35,1.23,1.23,0,0,1,.27.92A1.16,1.16,0,0,1,370,78a1.31,1.31,0,0,1-.91.39,1.28,1.28,0,0,1-.9-.39,1.74,1.74,0,0,1,0-1.83"/><path class="cls-1" d="M317,76.14a1.36,1.36,0,0,1,.91-.35,1.38,1.38,0,0,1,.92.35,1.22,1.22,0,0,1,.26.92,1.15,1.15,0,0,1-.26.91,1.37,1.37,0,0,1-.92.39A1.34,1.34,0,0,1,317,78a1.17,1.17,0,0,1-.24-.91,1.25,1.25,0,0,1,.24-.92"/><path class="cls-1" d="M261.94,78.06c-.07.66-.09,1.25-.12,1.87s-.09,1.23-.1,1.87c.17,0,.54,0,1,0s1.64-.08,1.64-.08v1.07s-.46,0-.68,0-.49,0-.77,0h-1.21c0,.1,0,.35-.09.83s0,1-.05,1.66,0,1.33,0,2,0,1.32,0,1.87,0,.92.05,1.39a4.4,4.4,0,0,0,.24,1.22,1.58,1.58,0,0,0,.6.8,1.79,1.79,0,0,0,1.15.33c.13,0,.3,0,.54,0a2.56,2.56,0,0,0,.59-.14v.67a7.57,7.57,0,0,1-.78.18,5.79,5.79,0,0,1-1.15.11,3,3,0,0,1-2.33-.79,3.12,3.12,0,0,1-.76-2.27c0-.44,0-.93,0-1.48s0-1.08.07-1.7,0-1.34.07-2.1,0-1.62,0-2.56h-.79a2.88,2.88,0,0,0-.42,0l-.48,0V81.68s1.29.08,1.64.08c0-.35,0-.77,0-1.26s0-1-.06-1.56l2.09-.88h.15Z"/><path class="cls-1" d="M268.78,89.37c-.34-.79-.68-1.61-1-2.43s-.69-1.62-1-2.34-.59-1.38-.82-1.93-.52-1.22-.52-1.22h2.31s1.09,3.19,1.74,4.76,1.22,3,1.94,4.68c.71-1.47,1.43-3,2-4.71s1.75-4.73,1.75-4.73H277s-2.66,5.6-3.93,8.7c-1.77,4.26-4,9.85-4,9.85h-1.83s2.18-4.63,3.1-6.82c-.2-.44-1.22-3-1.55-3.81"/><path class="cls-1" d="M248.49,92.76a9.07,9.07,0,0,1-10-1.38,8.3,8.3,0,0,1-1.9-2.82,10.93,10.93,0,0,1,0-7.59,7.79,7.79,0,0,1,1.95-2.86,9.56,9.56,0,0,1,8.7-2,20.29,20.29,0,0,1,2.42.81s-.47,1.68-.55,1.95l-.12.05a6.24,6.24,0,0,0-8.53-.28,6.49,6.49,0,0,0-1.56,2.51,11.15,11.15,0,0,0-.54,3.61,10.8,10.8,0,0,0,.54,3.61,6.79,6.79,0,0,0,1.46,2.51,6.09,6.09,0,0,0,2.43,1.49c1.5.51,3.86.47,6.51-1.63l.1.1-.24,1.49a3,3,0,0,1-.69.42"/><path class="cls-1" d="M253,83.77c0-.83-.16-2.32-.16-2.32h2.26s-.14,1.49-.18,2.32,0,1.6,0,2.38v2.61c0,.76,0,1.56,0,2.38s.18,2.24.18,2.24H252.8s.12-1.43.16-2.24,0-1.64,0-2.38V86.15c0-.78,0-1.55,0-2.38"/><path class="cls-1" d="M296.61,78.76c0-1.27-.15-2.67-.15-2.67h2.07s-.1,1.3-.15,2.12-.09,1.68-.13,2.61-.08,1.88-.1,2.86-.07,1.94-.08,2.86a9.38,9.38,0,0,1-.48,3,5.76,5.76,0,0,1-1.39,2.25c-2.07,2.1-7.2,2.79-10.06.16-1.17-1.11-1.7-3-1.7-5.41,0-.78,0-1.49.05-2.11s.06-1.24.06-1.85c0-1.42,0-2.66-.05-3.77s-.08-2.74-.08-2.74h2.37s-.06.83-.09,1.42-.07,1.29-.11,2,0,1.56-.08,2.42,0,1.78,0,2.72c0,.58,0,1.16,0,1.78a12.09,12.09,0,0,0,.2,1.8,7.65,7.65,0,0,0,.48,1.64,3.51,3.51,0,0,0,1,1.37,5.17,5.17,0,0,0,6.79-.19,4.52,4.52,0,0,0,1-1.49,12,12,0,0,0,.68-3.64c0-.63,0-1.2,0-1.72,0-2.38,0-4.21,0-5.51"/><path class="cls-1" d="M309.86,83.46a2.36,2.36,0,0,0-2-1,3.14,3.14,0,0,0-2.59,1.23,5.06,5.06,0,0,0-.8,3v2c0,.76,0,1.55,0,2.37s.16,2.25.16,2.25h-2.27s.16-1.43.2-2.25,0-1.63,0-2.37V86.14c0-.75,0-1.54,0-2.37s-.2-2.32-.2-2.32h2.15s-.08,1.34-.08,2h.06a4.82,4.82,0,0,1,1.68-1.68,4.38,4.38,0,0,1,2.34-.61,5.63,5.63,0,0,1,1.44.21,3.39,3.39,0,0,1,2.24,2,5.6,5.6,0,0,1,.37,2.17c0,.7,0,1.45-.06,2.21s0,1.58,0,2.4v2.44c0,.28,0,.76,0,.76h-2.11s.08-1.77.11-2.69.07-1.85.07-2.84V86.34a4.79,4.79,0,0,0-.74-2.88"/><path class="cls-1" d="M317,83.77c0-.83-.18-2.32-.18-2.32h2.27s-.13,1.49-.18,2.32,0,1.6,0,2.38v2.61c0,.76,0,1.56,0,2.38s.18,2.24.18,2.24h-2.27S317,92,317,91.14s0-1.64,0-2.38V86.15c0-.78,0-1.55,0-2.38"/><path class="cls-1" d="M324.51,87.45c-.78-2-2.54-6-2.54-6h2.37s1.06,3.28,1.68,4.88,1.25,3.14,2,4.81c.35-.69,1.63-3.69,1.93-4.56.57-1.53,2-5.13,2-5.13h1.68s-1.93,4-2.79,6-2.38,5.92-2.38,5.92h-1.59s-1.55-4-2.33-5.92"/><path class="cls-1" d="M339.1,82.41A4.61,4.61,0,0,0,338,83.49a5.8,5.8,0,0,0-.62,1.41,7.21,7.21,0,0,0-.24,1.44c.5,0,1.06,0,1.62.06l1.63,0c.55,0,1.13,0,1.7,0s1.11,0,1.64-.06a9.32,9.32,0,0,0-.12-1.44,4.39,4.39,0,0,0-.45-1.41,2.8,2.8,0,0,0-.94-1.08,2.59,2.59,0,0,0-1.57-.43,2.89,2.89,0,0,0-1.57.43m-2.78.53a5.33,5.33,0,0,1,4.31-1.75,5.73,5.73,0,0,1,2.3.41,4.9,4.9,0,0,1,1.61,1.12,4.22,4.22,0,0,1,1,1.63,6.34,6.34,0,0,1,.31,2v.49c0,.17,0,.32-.05.49-.9,0-1.8,0-2.69,0s-1.77,0-2.68,0c-.55,0-1.1,0-1.64,0s-1.1,0-1.64,0a1.32,1.32,0,0,0,0,.39V88a5.57,5.57,0,0,0,.3,1.83,3.82,3.82,0,0,0,.83,1.46,4.26,4.26,0,0,0,1.36,1,4.46,4.46,0,0,0,1.85.36,5.08,5.08,0,0,0,1-.12,5.3,5.3,0,0,0,1-.4,7.18,7.18,0,0,0,.94-.54,9.33,9.33,0,0,0,.78-.71l.12.08-.12,1.21a7.8,7.8,0,0,1-1.91,1,6.61,6.61,0,0,1-2.32.42,7.07,7.07,0,0,1-2.49-.42,6.11,6.11,0,0,1-1.94-1.19,5.27,5.27,0,0,1-1.24-1.88,6.23,6.23,0,0,1-.44-2.33,7.49,7.49,0,0,1,1.44-4.9"/><path class="cls-1" d="M354,83.22a2.24,2.24,0,0,0-.75-.11,2.29,2.29,0,0,0-1.08.24,2.69,2.69,0,0,0-.81.77,3,3,0,0,0-.49,1.11,4.38,4.38,0,0,0-.18,1.36V92c0,.59.11,1.44.11,1.44h-2.06s.07-1.34.07-2.33,0-2.19,0-3.61v-.81c0-.65,0-1.39,0-2.26s-.07-2.93-.07-2.93h2.06s-.14,1.07-.14,1.42,0,.68,0,1l0,0c.78-1.93,2.09-2.71,3.32-2.71h.39l.41.15s-.18,1.69-.18,2l-.18.14c0-.14-.21-.22-.45-.31"/><path class="cls-1" d="M358,91.58a3.06,3.06,0,0,0,.61.58,3.67,3.67,0,0,0,.83.44,2.91,2.91,0,0,0,1.9,0,2,2,0,0,0,.79-.43,1.89,1.89,0,0,0,.54-.71,2.61,2.61,0,0,0,.26-1,1.62,1.62,0,0,0-.43-1.2,3.81,3.81,0,0,0-1.1-.69c-.44-.15-.91-.32-1.44-.45a5.84,5.84,0,0,1-1.42-.56,3.45,3.45,0,0,1-1.12-1A2.69,2.69,0,0,1,357,85a4.06,4.06,0,0,1,.29-1.51,3.09,3.09,0,0,1,.8-1.21,3.58,3.58,0,0,1,1.3-.78,4.79,4.79,0,0,1,1.78-.3,6.28,6.28,0,0,1,1.81.31c.42.15,1,.4,1,.4s-.56,1.59-.58,1.79H363a2.54,2.54,0,0,0-.79-1.08,2.29,2.29,0,0,0-1.44-.5,2.37,2.37,0,0,0-.75.13,1.8,1.8,0,0,0-.66.4,1.94,1.94,0,0,0-.51.65,2,2,0,0,0-.19.94,1.7,1.7,0,0,0,.43,1.26,3.36,3.36,0,0,0,1.08.7,13.06,13.06,0,0,0,1.45.44,6.46,6.46,0,0,1,1.43.53,2.68,2.68,0,0,1,1.08.95,2.64,2.64,0,0,1,.46,1.64,3.31,3.31,0,0,1-.35,1.43,3.38,3.38,0,0,1-.89,1.27,3.79,3.79,0,0,1-1.43.88,5.12,5.12,0,0,1-1.9.31,6.6,6.6,0,0,1-1.91-.22,6,6,0,0,1-1.32-.53s.44-1.57.5-1.82h.28c.12.11.25.29.43.49"/><path class="cls-1" d="M368.12,83.77c0-.83-.15-2.32-.15-2.32h2.26s-.13,1.49-.16,2.32-.05,1.6-.05,2.38v2.61c0,.76,0,1.56.05,2.38s.16,2.24.16,2.24H368s.15-1.43.15-2.24.07-1.64.07-2.38V86.15c0-.78,0-1.55-.07-2.38"/><path class="cls-1" d="M377.48,78.06c-.06.66-.07,1.25-.11,1.87s-.06,1.23-.08,1.87c.18,0,.52,0,1,0s1.63-.08,1.63-.08v1.07s-.45,0-.68,0-.49,0-.75,0h-1.24c0,.1,0,.35-.08.83s0,1-.06,1.66,0,1.33,0,2,0,1.32,0,1.87,0,.92,0,1.39a4.06,4.06,0,0,0,.25,1.22,1.69,1.69,0,0,0,.59.8,1.81,1.81,0,0,0,1.15.33c.15,0,.31,0,.55,0a2.56,2.56,0,0,0,.59-.14v.67a8.07,8.07,0,0,1-.79.18,5.58,5.58,0,0,1-1.14.11,3,3,0,0,1-2.33-.79,3.08,3.08,0,0,1-.76-2.27c0-.44,0-.93,0-1.48s0-1.08.05-1.7,0-1.34.08-2.1,0-1.62,0-2.56h-.8a3.54,3.54,0,0,0-.45,0l-.46,0V81.68s1.29.08,1.64.08c0-.35,0-.77,0-1.26s0-1-.05-1.56l2.09-.88Z"/><path class="cls-1" d="M384.23,89.37c-.33-.79-.68-1.61-1-2.43s-.67-1.62-1-2.34-.57-1.38-.82-1.93-.53-1.22-.53-1.22h2.32s1.09,3.19,1.73,4.76,1.24,3,1.94,4.68c.7-1.47,1.41-3,2.06-4.71s1.76-4.73,1.76-4.73h1.74s-2.66,5.6-3.94,8.7c-1.75,4.26-4,9.85-4,9.85h-1.79s2.17-4.63,3.08-6.82c-.18-.44-1.19-3-1.54-3.81"/><path class="cls-1" d="M191.13,76.26a1.21,1.21,0,0,1,.91-.39,1.24,1.24,0,0,1,.91.39,1.63,1.63,0,0,1,0,1.8,1.26,1.26,0,0,1-1.82,0,1.15,1.15,0,0,1-.26-.89,1.17,1.17,0,0,1,.26-.91"/><path class="cls-1" d="M167.18,91.68a3.25,3.25,0,0,0,.64.57,3.47,3.47,0,0,0,.81.43,2.54,2.54,0,0,0,1,.19,3.24,3.24,0,0,0,.93-.16,2.68,2.68,0,0,0,.76-.43,2,2,0,0,0,.56-.7,3.17,3.17,0,0,0,.24-1.06,1.48,1.48,0,0,0-.44-1.18,3.55,3.55,0,0,0-1.09-.68,9.85,9.85,0,0,0-1.42-.47,5.33,5.33,0,0,1-1.44-.56,3.08,3.08,0,0,1-1.1-1,2.66,2.66,0,0,1-.49-1.61,4.07,4.07,0,0,1,.26-1.53,3.74,3.74,0,0,1,.82-1.17,4,4,0,0,1,1.31-.8,5.07,5.07,0,0,1,1.76-.29,5.67,5.67,0,0,1,1.79.31c.46.14,1,.38,1,.38s-.57,1.59-.61,1.8h-.3a2.39,2.39,0,0,0-.76-1.06,2.06,2.06,0,0,0-1.43-.5,2,2,0,0,0-.76.14,1.88,1.88,0,0,0-.67.36,2,2,0,0,0-.51.65,2.28,2.28,0,0,0-.18,1,1.68,1.68,0,0,0,.42,1.24,2.69,2.69,0,0,0,1.09.71,14.35,14.35,0,0,0,1.43.43,5.74,5.74,0,0,1,1.44.55,2.82,2.82,0,0,1,1.09,1,2.86,2.86,0,0,1,.43,1.64,3.22,3.22,0,0,1-.31,1.42,3.64,3.64,0,0,1-.9,1.27,4.1,4.1,0,0,1-1.43.9,5.45,5.45,0,0,1-1.88.31,6.87,6.87,0,0,1-1.92-.24A7.16,7.16,0,0,1,166,93s.43-1.55.48-1.83h.31a2,2,0,0,0,.37.55"/><path class="cls-1" d="M131.09,79.45c0-1.06-.15-3.26-.15-3.26h2.32s-.09,2.2-.14,3.26-.05,2.15-.05,3.25v4.35c0,1.1,0,2.19.05,3.26s.14,3.16.14,3.16h-2.32s.11-2.11.15-3.16.06-2.17.06-3.26V84.78c-.9,0-1.77,0-2.63,0s-3.3,0-4.14,0l-2.62,0v2.27c0,1.1,0,2.19,0,3.26s.14,3.16.14,3.16H119.6s.1-2.11.14-3.16.07-2.17.07-3.26V82.7c0-1.1,0-2.17-.07-3.25s-.14-3.26-.14-3.26H122s-.09,2.2-.14,3.26,0,2.15,0,3.25v.9c.89,0,1.78,0,2.62,0s3.32,0,4.14,0l2.63,0v-.9c0-1.1,0-2.19-.06-3.25"/><path class="cls-1" d="M138.11,76.26a1.23,1.23,0,0,1,.91-.39,1.26,1.26,0,0,1,.91.39,1.69,1.69,0,0,1,0,1.8,1.26,1.26,0,0,1-.91.39,1.23,1.23,0,0,1-.91-.39,1.1,1.1,0,0,1-.25-.89,1.13,1.13,0,0,1,.25-.91"/><path class="cls-1" d="M138.05,83.84c0-.81-.17-2.3-.17-2.3h2.26S140,83,140,83.84s0,1.64,0,2.4v2.61c0,.76,0,1.52,0,2.37s.17,2.25.17,2.25h-2.26s.14-1.42.17-2.25,0-1.61,0-2.37V86.24c0-.76,0-1.56,0-2.4"/><path class="cls-1" d="M149.68,83.33a2.25,2.25,0,0,0-.76-.13,2,2,0,0,0-1.08.26,2.57,2.57,0,0,0-.79.75,3.5,3.5,0,0,0-.49,1.11,5.43,5.43,0,0,0-.2,1.4v2.74c0,1.12,0,2,0,2.59s.09,1.42.09,1.42h-2.06s.08-1.33.08-2.33,0-2.18,0-3.6v-.8c0-.66,0-1.4,0-2.26s-.08-2.94-.08-2.94h2.06s-.12,1-.12,1.42,0,.69,0,1l0,0c1-1.8,2.09-2.71,3.31-2.71l.4,0a2.72,2.72,0,0,1,.41.15s-.18,1.68-.18,2l-.18.12a.9.9,0,0,0-.47-.25"/><path class="cls-1" d="M154.16,89.57a4.06,4.06,0,0,0,.63,1.65A3.29,3.29,0,0,0,156,92.43a3.49,3.49,0,0,0,1.86.46,3.46,3.46,0,0,0,1.87-.46,3.42,3.42,0,0,0,1.21-1.21,4.65,4.65,0,0,0,.63-1.65,11.54,11.54,0,0,0,0-4.06,4.91,4.91,0,0,0-.63-1.67,3.68,3.68,0,0,0-1.21-1.21,3.64,3.64,0,0,0-1.87-.44,3.49,3.49,0,0,0-1.86.44,3.72,3.72,0,0,0-1.19,1.21,4.21,4.21,0,0,0-.63,1.67,9.48,9.48,0,0,0,0,4.06m-1.88-4.93a5.32,5.32,0,0,1,1.43-2,5.8,5.8,0,0,1,2-1.08,7.4,7.4,0,0,1,4.37,0,5.85,5.85,0,0,1,2,1.08,5.24,5.24,0,0,1,1.42,2,8.06,8.06,0,0,1,0,5.8A5.29,5.29,0,0,1,162,92.38a5.42,5.42,0,0,1-2,1,8.38,8.38,0,0,1-4.37,0,5.23,5.23,0,0,1-2-1,5.12,5.12,0,0,1-1.43-1.94,7.92,7.92,0,0,1,0-5.8"/><path class="cls-1" d="M176.87,79.89c0-.68,0-1.32,0-2s0-1.27-.06-1.85-.08-1.53-.08-1.53H179s-.06.92-.1,1.51,0,1.21,0,1.85,0,1.29,0,1.95,0,1.28,0,1.81v1.92h.06a5.24,5.24,0,0,1,1.69-1.69,4.52,4.52,0,0,1,2.36-.59,5.41,5.41,0,0,1,1.42.2,3.44,3.44,0,0,1,2.24,2,5.63,5.63,0,0,1,.36,2.13c0,.74,0,1.47-.05,2.23s-.06,1.6-.06,2.42v1.65c0,.26,0,.52,0,.78s0,.73,0,.73h-2.11s.08-1.76.11-2.67.07-1.87.07-2.85V86.4a4.65,4.65,0,0,0-.73-2.85,2.35,2.35,0,0,0-2-1,3.12,3.12,0,0,0-2.57,1.32,4.87,4.87,0,0,0-.81,3v1.4c0,.62,0,1.23,0,1.85s0,1.25.06,1.84.1,1.41.1,1.41h-2.26s0-.84.07-1.43.05-1.21.09-1.86,0-1.3,0-2,0-1.31,0-1.88V81.76c0-.57,0-1.19-.06-1.87"/><path class="cls-1" d="M191.07,83.84c0-.81-.16-2.3-.16-2.3h2.26S193,83,193,83.84s0,1.64,0,2.4v2.61c0,.76,0,1.52,0,2.37s.16,2.25.16,2.25h-2.26s.13-1.42.16-2.25.05-1.61.05-2.37V86.24c0-.76,0-1.56-.05-2.4"/><path class="cls-1" d="M197.46,83.84c0-.81-.17-2.3-.17-2.3h2.15s-.07,1.33-.07,2h0a4.26,4.26,0,0,1,5-2.08,5.32,5.32,0,0,1,1.07.51,3.51,3.51,0,0,1,.86.81,2.35,2.35,0,0,1,.46,1h.07a4.37,4.37,0,0,1,4.06-2.49,5.07,5.07,0,0,1,1.54.24,2.84,2.84,0,0,1,1.21.7,2.91,2.91,0,0,1,.81,1.23,4.82,4.82,0,0,1,.29,1.8c0,.28,0,.59,0,.92s0,.73,0,1.17,0,1-.06,1.52,0,1.21,0,1.94V92.1c0,.41.09,1.34.09,1.34h-2.19s.09-1.25.17-2.5.06-3.08.06-5.34a4.13,4.13,0,0,0-.14-1.19,2.39,2.39,0,0,0-.41-1,2.34,2.34,0,0,0-.81-.66,3.14,3.14,0,0,0-1.28-.24,2.79,2.79,0,0,0-1.53.44c-.83.53-1.5,1.51-1.57,3.83,0,.68,0,1.52,0,2.7,0,.74,0,1.38,0,2s.07,1.93.07,1.93h-2.18s.11-1.82.14-2.78.07-1.9.07-2.84c0-.77,0-1.39,0-1.83a6,6,0,0,0-.08-1.07,4.23,4.23,0,0,0-.12-.65,5,5,0,0,0-.24-.54,2.32,2.32,0,0,0-.86-.81,2.38,2.38,0,0,0-1.22-.35,3,3,0,0,0-2.44,1.34,5.26,5.26,0,0,0-.74,3v1.88c0,.77,0,1.54,0,2.38s.15,2.24.15,2.24h-2.26s.14-1.41.17-2.24,0-1.61,0-2.38V86.23c0-.75,0-1.55,0-2.39"/><path class="cls-1" d="M223.79,87.51c-.37.09-.73.16-1.12.22s-.77.19-1.15.29a4,4,0,0,0-1,.47,2.23,2.23,0,0,0-.69.75,2,2,0,0,0-.3,1.12,2.1,2.1,0,0,0,.7,1.69,2.2,2.2,0,0,0,1.51.62,2.89,2.89,0,0,0,1.72-.55,3.91,3.91,0,0,0,1.22-1.21l.1-3.63a6.34,6.34,0,0,1-1,.23m-3.12-5.93a6.72,6.72,0,0,1,2-.29,4.54,4.54,0,0,1,1.65.27,3.44,3.44,0,0,1,1.3.76,3.29,3.29,0,0,1,.84,1.18,3.57,3.57,0,0,1,.3,1.53c0,.94,0,1.89-.05,2.83s0,2,0,3v.64a1.58,1.58,0,0,0,.12.61,3,3,0,0,0,.28.44.87.87,0,0,0,.59.17h.24a.53.53,0,0,0,.27-.08v.54a2.93,2.93,0,0,1-.7.21,4.81,4.81,0,0,1-.91.08,1.67,1.67,0,0,1-1.23-.42,1.77,1.77,0,0,1-.53-1A6.69,6.69,0,0,1,223,93.31a4.81,4.81,0,0,1-2.16.43,4.59,4.59,0,0,1-1.22-.16,3,3,0,0,1-1.05-.59,2.93,2.93,0,0,1-.77-1,3.24,3.24,0,0,1-.28-1.27,2.94,2.94,0,0,1,.94-2.35A5.12,5.12,0,0,1,221,87.28c.92-.14,1.61-.27,2.13-.39a5.27,5.27,0,0,0,1.13-.35c.23-.11.38-.23.42-.41a1.58,1.58,0,0,0,.08-.59,5.12,5.12,0,0,0-.16-1.23,2.66,2.66,0,0,0-.48-1,2.73,2.73,0,0,0-2.14-.86,4,4,0,0,0-1.85.45,2.81,2.81,0,0,0-1.3,1.27h-.28V82.76a6.73,6.73,0,0,1,2.09-1.18"/><path class="cls-2" d="M41.28,39.24c0-1.85-1.17-3.45-4.83-8.33L13.22,0,0,3.53,34.51,33.31c3.82,3.3,4.66,4.6,4.69,5.93s-.87,2.8-4.54,6.19l-11,10.25,1.87,7L36.67,47.78C40.3,43,41.3,41.21,41.28,39.24Z"/><path class="cls-3" d="M45.87,36.6c1.6.91,3.54.6,9.61-.11l38.4-4.58,3.54-13.22-43.07,15c-4.77,1.65-6.3,1.79-7.46,1.14s-1.87-2.15-3-7L40.47,13.07l-7-1.87,7.36,17.11C43.21,33.81,44.14,35.63,45.87,36.6Z"/><path class="cls-4" d="M44.34,42.29c-1.54,0-2.37,2.24-4.44,7.54l-14,36,9.69,9.68,7.14-44.93c1-6,1.37-6.2,1.61-6.2s.63.2,1.61,6.21L49,69l5.1-5.14-5.29-14C46.78,44.49,45.88,42.29,44.34,42.29Z"/></g></g></svg>