<svg xmlns="http://www.w3.org/2000/svg" viewBox="0 0 80 80"><defs><style>.cls-1{fill:#f29600;}.cls-2{fill:#fff;}</style></defs><title>sm-menu</title><g id="レイヤー_2" data-name="レイヤー 2"><g id="レイヤー_1-2" data-name="レイヤー 1"><rect class="cls-1" width="80" height="80"/><path class="cls-2" d="M17.67,52q.78,0,.78.93v.56A2.93,2.93,0,0,1,21,52a3.22,3.22,0,0,1,1.63.47,2.85,2.85,0,0,1,1.11,1.17A4.58,4.58,0,0,1,25,52.45,4.19,4.19,0,0,1,27,52a3.2,3.2,0,0,1,2.29.93,3.1,3.1,0,0,1,1,2.23V61c0,.63-.26.94-.76.94s-.78-.31-.78-.94V55.2A2.25,2.25,0,0,0,28.08,54,1.71,1.71,0,0,0,27,53.58a2.29,2.29,0,0,0-1.59.56,2.16,2.16,0,0,0-.89,1.47V61c0,.63-.26.94-.78.94s-.76-.31-.76-.94V55.61a2,2,0,0,0-.63-1.38A1.88,1.88,0,0,0,21,53.58a2.27,2.27,0,0,0-1.71.76,2.39,2.39,0,0,0-.8,1.41V61c0,.63-.25.94-.74.94s-.8-.31-.8-.94V53C16.91,52.35,17.17,52,17.67,52Z"/><path class="cls-2" d="M36.58,52a4.57,4.57,0,0,1,3.28,1.39,4.92,4.92,0,0,1,1.2,3.06c0,.51-.37.77-1,.77h-6.4a3.44,3.44,0,0,0,.82,2,2.69,2.69,0,0,0,3.8.5,3.38,3.38,0,0,0,1.1-1.39.52.52,0,0,1,.5-.34c.59,0,.9.33.94,1a2.56,2.56,0,0,1-.91,1.39,4.3,4.3,0,0,1-1.39,1,4.07,4.07,0,0,1-1.94.52,4.33,4.33,0,0,1-3.2-1.46A5,5,0,0,1,32,56.85a4.89,4.89,0,0,1,1.39-3.42A4.28,4.28,0,0,1,36.58,52Zm-2.8,3.84h5.37c.14,0,.22-.05.25-.11a2.15,2.15,0,0,0-.8-1.54,2.9,2.9,0,0,0-2-.65,2.67,2.67,0,0,0-1.8.65A3.05,3.05,0,0,0,33.78,55.88Z"/><path class="cls-2" d="M43.7,52q.78,0,.78.93v.85a4.36,4.36,0,0,1,1.41-1.29A3.64,3.64,0,0,1,47.8,52a3.81,3.81,0,0,1,2.63.89,3.86,3.86,0,0,1,1.43,3V61c0,.63-.26.94-.78.94s-.78-.31-.78-.94V55.88a2.43,2.43,0,0,0-.81-1.72,2.51,2.51,0,0,0-1.69-.58,3.21,3.21,0,0,0-2.17.76c-.77.67-1.15,1.2-1.15,1.58v5c-.06.63-.29.94-.67.94-.59,0-.89-.31-.89-.94V53Q42.92,52,43.7,52Z"/><path class="cls-2" d="M54.85,52q.78,0,.78.93V58a2.27,2.27,0,0,0,.61,1.67,2.51,2.51,0,0,0,1.89.63,3.77,3.77,0,0,0,3.4-2.43V53q0-.93.78-.93t.78.93v8c0,.63-.26.94-.78.94s-.78-.31-.78-.94v-.86a5,5,0,0,1-1.73,1.32,3.89,3.89,0,0,1-1.67.48,4.39,4.39,0,0,1-3-1.28,3.54,3.54,0,0,1-1-2.71V53C54.09,52.35,54.34,52,54.85,52Z"/><rect class="cls-2" x="12.5" y="19.57" width="55" height="2" rx="1" ry="1"/><rect class="cls-2" x="12.5" y="28.57" width="55" height="2" rx="1" ry="1"/><rect class="cls-2" x="12.5" y="36.57" width="55" height="2" rx="1" ry="1"/></g></g></svg>